<?xml version="1.0" encoding="utf-8"?>
<!-- Generator: Adobe Illustrator 19.1.0, SVG Export Plug-In . SVG Version: 6.00 Build 0)  -->
<!DOCTYPE svg PUBLIC "-//W3C//DTD SVG 1.1//EN" "http://www.w3.org/Graphics/SVG/1.1/DTD/svg11.dtd">
<svg version="1.1" id="Layer_1" xmlns="http://www.w3.org/2000/svg" xmlns:xlink="http://www.w3.org/1999/xlink" x="0px" y="0px"
	 viewBox="0 0 28.8 28.8" style="enable-background:new 0 0 28.8 28.8;" xml:space="preserve">
<style type="text/css">
	.st0{fill:#393939;}
	.st1{fill:#26B99A;}
	.st2{fill-rule:evenodd;clip-rule:evenodd;fill:#393939;}
	.st3{fill-rule:evenodd;clip-rule:evenodd;fill:#26B99A;}
</style>
<g>
	<g>
		<path class="st0" d="M-91.3-37.6h-24.6c-1.2,0-2.1,0.9-2.1,2.1v24.7c0,1.1,1,2.1,2.1,2.1h24.6c1.2,0,2.1-0.9,2.1-2.1v-24.7
			C-89.2-36.6-90.1-37.6-91.3-37.6z M-109.4-13h-4.3v-13.8h4.3V-13z M-111.6-28.6c-1.4,0-2.5-1.1-2.5-2.5c0-1.4,1.1-2.5,2.5-2.5
			c1.4,0,2.5,1.1,2.5,2.5C-109.1-29.8-110.2-28.6-111.6-28.6z M-93.4-13h-4.3v-6.7c0-1.6,0-3.6-2.2-3.6c-2.2,0-2.6,1.7-2.6,3.5v6.8
			h-4.3v-13.8h4.1v1.9h0.1c0.6-1.1,2-2.2,4-2.2c4.3,0,5.1,2.8,5.1,6.6V-13z"/>
	</g>
</g>
<path class="st0" d="M-49.5-32.8c-1.1,0.5-2.2,0.8-3.4,0.9c1.2-0.7,2.2-1.9,2.6-3.3c-1.1,0.7-2.4,1.2-3.8,1.4
	c-1.1-1.1-2.6-1.9-4.3-1.9c-3.3,0-5.9,2.6-5.9,5.9c0,0.5,0.1,0.9,0.2,1.3c-4.9-0.2-9.3-2.6-12.2-6.2c-0.5,0.9-0.8,1.9-0.8,3
	c0,2.1,1,3.9,2.6,4.9c-1,0-1.9-0.3-2.7-0.7c0,0,0,0,0,0.1c0,2.9,2,5.3,4.7,5.8c-0.5,0.1-1,0.2-1.6,0.2c-0.4,0-0.8,0-1.1-0.1
	c0.8,2.4,2.9,4.1,5.5,4.1c-2,1.6-4.6,2.5-7.3,2.5c-0.5,0-0.9,0-1.4-0.1c2.6,1.7,5.7,2.7,9.1,2.7c10.9,0,16.8-9,16.8-16.8
	c0-0.3,0-0.5,0-0.8C-51.3-30.6-50.3-31.6-49.5-32.8z"/>
<path class="st1" d="M-49.5,6.7c-1.1,0.5-2.2,0.8-3.4,0.9c1.2-0.7,2.2-1.9,2.6-3.3C-51.4,5-52.7,5.5-54,5.8
	c-1.1-1.1-2.6-1.9-4.3-1.9c-3.3,0-5.9,2.6-5.9,5.9c0,0.5,0.1,0.9,0.2,1.3C-69,10.9-73.4,8.6-76.3,5c-0.5,0.9-0.8,1.9-0.8,3
	c0,2.1,1,3.9,2.6,4.9c-1,0-1.9-0.3-2.7-0.7c0,0,0,0,0,0.1c0,2.9,2,5.3,4.7,5.8c-0.5,0.1-1,0.2-1.6,0.2c-0.4,0-0.8,0-1.1-0.1
	c0.8,2.4,2.9,4.1,5.5,4.1c-2,1.6-4.6,2.5-7.3,2.5c-0.5,0-0.9,0-1.4-0.1c2.6,1.7,5.7,2.7,9.1,2.7c10.9,0,16.8-9,16.8-16.8
	c0-0.3,0-0.5,0-0.8C-51.3,8.9-50.3,7.9-49.5,6.7z"/>
<path class="st2" d="M-14.3-25.4h-2.5c0.2,0.7,0.3,1.4,0.3,2.2c0,4.9-4,8.9-8.9,8.9c-4.9,0-8.9-4-8.9-8.9c0-0.8,0.1-1.5,0.3-2.2
	h-2.5v12.2c0,0.6,0.5,1.1,1.1,1.1h19.9c0.6,0,1.1-0.5,1.1-1.1V-25.4z M-14.3-33.1c0-0.6-0.5-1.1-1.1-1.1h-3.3
	c-0.6,0-1.1,0.5-1.1,1.1v3.3c0,0.6,0.5,1.1,1.1,1.1h3.3c0.6,0,1.1-0.5,1.1-1.1V-33.1z M-25.4-28.7c-3.1,0-5.5,2.5-5.5,5.5
	c0,3.1,2.5,5.5,5.5,5.5s5.5-2.5,5.5-5.5C-19.9-26.2-22.4-28.7-25.4-28.7 M-14.3-8.8h-22.1c-1.8,0-3.3-1.5-3.3-3.3v-22.1
	c0-1.8,1.5-3.3,3.3-3.3h22.1c1.8,0,3.3,1.5,3.3,3.3v22.1C-11-10.2-12.5-8.8-14.3-8.8"/>
<path class="st3" d="M-14.3,14.1h-2.5c0.2,0.7,0.3,1.4,0.3,2.2c0,4.9-4,8.9-8.9,8.9c-4.9,0-8.9-4-8.9-8.9c0-0.8,0.1-1.5,0.3-2.2
	h-2.5v12.2c0,0.6,0.5,1.1,1.1,1.1h19.9c0.6,0,1.1-0.5,1.1-1.1V14.1z M-14.3,6.4c0-0.6-0.5-1.1-1.1-1.1h-3.3c-0.6,0-1.1,0.5-1.1,1.1
	v3.3c0,0.6,0.5,1.1,1.1,1.1h3.3c0.6,0,1.1-0.5,1.1-1.1V6.4z M-25.4,10.8c-3.1,0-5.5,2.5-5.5,5.5c0,3.1,2.5,5.5,5.5,5.5
	s5.5-2.5,5.5-5.5C-19.9,13.3-22.4,10.8-25.4,10.8 M-14.3,30.7h-22.1c-1.8,0-3.3-1.5-3.3-3.3V5.3c0-1.8,1.5-3.3,3.3-3.3h22.1
	c1.8,0,3.3,1.5,3.3,3.3v22.1C-11,29.3-12.5,30.7-14.3,30.7"/>
<g id="ball_2_">
	<g>
		<path class="st0" d="M14.4-37.5c-7.9,0-14.4,6.5-14.4,14.4S6.5-8.8,14.4-8.8s14.4-6.5,14.4-14.4S22.4-37.5,14.4-37.5z M24-30.9
			c1.7,2.1,2.7,4.8,2.8,7.7c-0.4-0.1-4.5-0.9-8.6-0.4c-0.1-0.2-0.2-0.4-0.3-0.6c-0.3-0.6-0.5-1.2-0.8-1.8
			C21.6-27.9,23.7-30.6,24-30.9z M14.4-35.4c3.1,0,6,1.2,8.1,3.1c-0.2,0.3-2.1,2.8-6.4,4.4c-2-3.7-4.2-6.7-4.6-7.2
			C12.5-35.3,13.5-35.4,14.4-35.4z M9.2-34.3c0.3,0.4,2.5,3.5,4.6,7.1C8-25.6,3-25.6,2.4-25.7C3.2-29.5,5.8-32.6,9.2-34.3z
			 M2.1-23.1c0-0.1,0-0.3,0-0.4c0.5,0,6.5,0.1,12.6-1.7c0.4,0.7,0.7,1.4,1,2.1c-0.2,0-0.3,0.1-0.5,0.1c-6.3,2-9.7,7.6-10,8.1
			C3.3-17.1,2.1-20,2.1-23.1z M14.4-10.8c-2.8,0-5.5-1-7.5-2.6c0.2-0.5,2.7-5.3,9.6-7.7c0,0,0.1,0,0.1,0c1.7,4.5,2.4,8.2,2.6,9.3
			C17.8-11.2,16.1-10.8,14.4-10.8z M21.3-12.9c-0.1-0.7-0.8-4.3-2.4-8.8c3.9-0.6,7.2,0.4,7.7,0.5C26-17.8,24.1-14.8,21.3-12.9z"/>
	</g>
</g>
<g id="ball_3_">
	<g>
		<path class="st1" d="M14.4,0C6.5,0,0.1,6.5,0.1,14.4s6.5,14.4,14.4,14.4s14.4-6.5,14.4-14.4S22.4,0,14.4,0z M24,6.7
			c1.7,2.1,2.7,4.8,2.8,7.7c-0.4-0.1-4.5-0.9-8.6-0.4c-0.1-0.2-0.2-0.4-0.3-0.6c-0.3-0.6-0.5-1.2-0.8-1.8C21.6,9.7,23.7,7,24,6.7z
			 M14.4,2.1c3.1,0,6,1.2,8.1,3.1c-0.2,0.3-2.1,2.8-6.4,4.4c-2-3.7-4.2-6.7-4.6-7.2C12.5,2.3,13.5,2.1,14.4,2.1z M9.2,3.3
			c0.3,0.4,2.5,3.5,4.6,7.1C8,11.9,3,11.9,2.4,11.9C3.2,8.1,5.8,4.9,9.2,3.3z M2.1,14.4c0-0.1,0-0.3,0-0.4c0.5,0,6.5,0.1,12.6-1.7
			c0.4,0.7,0.7,1.4,1,2.1c-0.2,0-0.3,0.1-0.5,0.1c-6.3,2-9.7,7.6-10,8.1C3.3,20.5,2.1,17.6,2.1,14.4z M14.4,26.7
			c-2.8,0-5.5-1-7.5-2.6c0.2-0.5,2.7-5.3,9.6-7.7c0,0,0.1,0,0.1,0c1.7,4.5,2.4,8.2,2.6,9.3C17.8,26.4,16.1,26.7,14.4,26.7z
			 M21.3,24.6c-0.1-0.7-0.8-4.3-2.4-8.8c3.9-0.6,7.2,0.4,7.7,0.5C26,19.8,24.1,22.8,21.3,24.6z"/>
	</g>
</g>
<g>
	<g>
		<path class="st1" d="M-91.3,1.9h-24.6c-1.2,0-2.1,0.9-2.1,2.1v24.7c0,1.1,1,2.1,2.1,2.1h24.6c1.2,0,2.1-0.9,2.1-2.1V4
			C-89.2,2.9-90.1,1.9-91.3,1.9z M-109.4,26.5h-4.3V12.7h4.3V26.5z M-111.6,10.9c-1.4,0-2.5-1.1-2.5-2.5c0-1.4,1.1-2.5,2.5-2.5
			c1.4,0,2.5,1.1,2.5,2.5C-109.1,9.7-110.2,10.9-111.6,10.9z M-93.4,26.5h-4.3v-6.7c0-1.6,0-3.6-2.2-3.6c-2.2,0-2.6,1.7-2.6,3.5v6.8
			h-4.3V12.7h4.1v1.9h0.1c0.6-1.1,2-2.2,4-2.2c4.3,0,5.1,2.8,5.1,6.6V26.5z"/>
	</g>
</g>
</svg>
