<?xml version="1.0" encoding="utf-8"?>
<!-- Generator: Adobe Illustrator 19.1.0, SVG Export Plug-In . SVG Version: 6.00 Build 0)  -->
<!DOCTYPE svg PUBLIC "-//W3C//DTD SVG 1.1//EN" "http://www.w3.org/Graphics/SVG/1.1/DTD/svg11.dtd">
<svg version="1.1" id="Layer_1" xmlns="http://www.w3.org/2000/svg" xmlns:xlink="http://www.w3.org/1999/xlink" x="0px" y="0px"
	 viewBox="0 0 28.8 28.8" style="enable-background:new 0 0 28.8 28.8;" xml:space="preserve">
<style type="text/css">
	.st0{fill:#393939;}
	.st1{fill:#26B99A;}
	.st2{fill-rule:evenodd;clip-rule:evenodd;fill:#393939;}
	.st3{fill-rule:evenodd;clip-rule:evenodd;fill:#26B99A;}
</style>
<g>
	<g>
		<path class="st0" d="M-91.3,0h-24.6c-1.2,0-2.1,0.9-2.1,2.1v24.7c0,1.1,1,2.1,2.1,2.1h24.6c1.2,0,2.1-0.9,2.1-2.1V2.1
			C-89.2,0.9-90.1,0-91.3,0z M-109.4,24.6h-4.3V10.8h4.3V24.6z M-111.6,8.9c-1.4,0-2.5-1.1-2.5-2.5c0-1.4,1.1-2.5,2.5-2.5
			c1.4,0,2.5,1.1,2.5,2.5C-109.1,7.8-110.2,8.9-111.6,8.9z M-93.4,24.6h-4.3v-6.7c0-1.6,0-3.6-2.2-3.6c-2.2,0-2.6,1.7-2.6,3.5v6.8
			h-4.3V10.8h4.1v1.9h0.1c0.6-1.1,2-2.2,4-2.2c4.3,0,5.1,2.8,5.1,6.6V24.6z"/>
	</g>
</g>
<path class="st0" d="M-49.5,4.7c-1.1,0.5-2.2,0.8-3.4,0.9c1.2-0.7,2.2-1.9,2.6-3.3c-1.1,0.7-2.4,1.2-3.8,1.4
	C-55.1,2.7-56.7,2-58.4,2c-3.3,0-5.9,2.6-5.9,5.9c0,0.5,0.1,0.9,0.2,1.3C-69,9-73.4,6.6-76.3,3.1c-0.5,0.9-0.8,1.9-0.8,3
	c0,2.1,1,3.9,2.6,4.9c-1,0-1.9-0.3-2.7-0.7c0,0,0,0,0,0.1c0,2.9,2,5.3,4.7,5.8c-0.5,0.1-1,0.2-1.6,0.2c-0.4,0-0.8,0-1.1-0.1
	c0.8,2.4,2.9,4.1,5.5,4.1c-2,1.6-4.6,2.5-7.3,2.5c-0.5,0-0.9,0-1.4-0.1c2.6,1.7,5.7,2.7,9.1,2.7c10.9,0,16.8-9,16.8-16.8
	c0-0.3,0-0.5,0-0.8C-51.3,7-50.3,5.9-49.5,4.7z"/>
<path class="st1" d="M-49.5,44.2c-1.1,0.5-2.2,0.8-3.4,0.9c1.2-0.7,2.2-1.9,2.6-3.3c-1.1,0.7-2.4,1.2-3.8,1.4
	c-1.1-1.1-2.6-1.9-4.3-1.9c-3.3,0-5.9,2.6-5.9,5.9c0,0.5,0.1,0.9,0.2,1.3c-4.9-0.2-9.3-2.6-12.2-6.2c-0.5,0.9-0.8,1.9-0.8,3
	c0,2.1,1,3.9,2.6,4.9c-1,0-1.9-0.3-2.7-0.7c0,0,0,0,0,0.1c0,2.9,2,5.3,4.7,5.8c-0.5,0.1-1,0.2-1.6,0.2c-0.4,0-0.8,0-1.1-0.1
	c0.8,2.4,2.9,4.1,5.5,4.1c-2,1.6-4.6,2.5-7.3,2.5c-0.5,0-0.9,0-1.4-0.1c2.6,1.7,5.7,2.7,9.1,2.7c10.9,0,16.8-9,16.8-16.8
	c0-0.3,0-0.5,0-0.8C-51.3,46.5-50.3,45.4-49.5,44.2z"/>
<path class="st2" d="M-14.3,12.2h-2.5c0.2,0.7,0.3,1.4,0.3,2.2c0,4.9-4,8.9-8.9,8.9c-4.9,0-8.9-4-8.9-8.9c0-0.8,0.1-1.5,0.3-2.2
	h-2.5v12.2c0,0.6,0.5,1.1,1.1,1.1h19.9c0.6,0,1.1-0.5,1.1-1.1V12.2z M-14.3,4.5c0-0.6-0.5-1.1-1.1-1.1h-3.3c-0.6,0-1.1,0.5-1.1,1.1
	v3.3c0,0.6,0.5,1.1,1.1,1.1h3.3c0.6,0,1.1-0.5,1.1-1.1V4.5z M-25.4,8.9c-3.1,0-5.5,2.5-5.5,5.5c0,3.1,2.5,5.5,5.5,5.5
	s5.5-2.5,5.5-5.5C-19.9,11.4-22.4,8.9-25.4,8.9 M-14.3,28.8h-22.1c-1.8,0-3.3-1.5-3.3-3.3V3.3c0-1.8,1.5-3.3,3.3-3.3h22.1
	c1.8,0,3.3,1.5,3.3,3.3v22.1C-11,27.3-12.5,28.8-14.3,28.8"/>
<path class="st3" d="M-14.3,51.7h-2.5c0.2,0.7,0.3,1.4,0.3,2.2c0,4.9-4,8.9-8.9,8.9c-4.9,0-8.9-4-8.9-8.9c0-0.8,0.1-1.5,0.3-2.2
	h-2.5v12.2c0,0.6,0.5,1.1,1.1,1.1h19.9c0.6,0,1.1-0.5,1.1-1.1V51.7z M-14.3,44c0-0.6-0.5-1.1-1.1-1.1h-3.3c-0.6,0-1.1,0.5-1.1,1.1
	v3.3c0,0.6,0.5,1.1,1.1,1.1h3.3c0.6,0,1.1-0.5,1.1-1.1V44z M-25.4,48.4c-3.1,0-5.5,2.5-5.5,5.5c0,3.1,2.5,5.5,5.5,5.5
	s5.5-2.5,5.5-5.5C-19.9,50.9-22.4,48.4-25.4,48.4 M-14.3,68.3h-22.1c-1.8,0-3.3-1.5-3.3-3.3V42.8c0-1.8,1.5-3.3,3.3-3.3h22.1
	c1.8,0,3.3,1.5,3.3,3.3V65C-11,66.8-12.5,68.3-14.3,68.3"/>
<g id="ball_2_">
	<g>
		<path class="st0" d="M14.4,0C6.5,0,0.1,6.5,0.1,14.4s6.5,14.4,14.4,14.4s14.4-6.5,14.4-14.4S22.4,0,14.4,0z M24,6.7
			c1.7,2.1,2.7,4.8,2.8,7.7c-0.4-0.1-4.5-0.9-8.6-0.4c-0.1-0.2-0.2-0.4-0.3-0.6c-0.3-0.6-0.5-1.2-0.8-1.8C21.6,9.7,23.7,7,24,6.7z
			 M14.4,2.1c3.1,0,6,1.2,8.1,3.1c-0.2,0.3-2.1,2.8-6.4,4.4c-2-3.7-4.2-6.7-4.6-7.2C12.5,2.3,13.5,2.1,14.4,2.1z M9.2,3.3
			c0.3,0.4,2.5,3.5,4.6,7.1C8,11.9,3,11.9,2.4,11.9C3.2,8.1,5.8,4.9,9.2,3.3z M2.1,14.4c0-0.1,0-0.3,0-0.4c0.5,0,6.5,0.1,12.6-1.7
			c0.4,0.7,0.7,1.4,1,2.1c-0.2,0-0.3,0.1-0.5,0.1c-6.3,2-9.7,7.6-10,8.1C3.3,20.5,2.1,17.6,2.1,14.4z M14.4,26.7
			c-2.8,0-5.5-1-7.5-2.6c0.2-0.5,2.7-5.3,9.6-7.7c0,0,0.1,0,0.1,0c1.7,4.5,2.4,8.2,2.6,9.3C17.8,26.4,16.1,26.7,14.4,26.7z
			 M21.3,24.6c-0.1-0.7-0.8-4.3-2.4-8.8c3.9-0.6,7.2,0.4,7.7,0.5C26,19.8,24.1,22.8,21.3,24.6z"/>
	</g>
</g>
<g id="ball_3_">
	<g>
		<path class="st1" d="M14.4,37.6C6.5,37.6,0.1,44.1,0.1,52s6.5,14.4,14.4,14.4S28.8,59.9,28.8,52S22.4,37.6,14.4,37.6z M24,44.2
			c1.7,2.1,2.7,4.8,2.8,7.7c-0.4-0.1-4.5-0.9-8.6-0.4c-0.1-0.2-0.2-0.4-0.3-0.6c-0.3-0.6-0.5-1.2-0.8-1.8
			C21.6,47.2,23.7,44.6,24,44.2z M14.4,39.7c3.1,0,6,1.2,8.1,3.1c-0.2,0.3-2.1,2.8-6.4,4.4c-2-3.7-4.2-6.7-4.6-7.2
			C12.5,39.8,13.5,39.7,14.4,39.7z M9.2,40.9c0.3,0.4,2.5,3.5,4.6,7.1C8,49.5,3,49.5,2.4,49.5C3.2,45.7,5.8,42.5,9.2,40.9z M2.1,52
			c0-0.1,0-0.3,0-0.4c0.5,0,6.5,0.1,12.6-1.7c0.4,0.7,0.7,1.4,1,2.1c-0.2,0-0.3,0.1-0.5,0.1c-6.3,2-9.7,7.6-10,8.1
			C3.3,58,2.1,55.2,2.1,52z M14.4,64.3c-2.8,0-5.5-1-7.5-2.6c0.2-0.5,2.7-5.3,9.6-7.7c0,0,0.1,0,0.1,0c1.7,4.5,2.4,8.2,2.6,9.3
			C17.8,63.9,16.1,64.3,14.4,64.3z M21.3,62.2c-0.1-0.7-0.8-4.3-2.4-8.8c3.9-0.6,7.2,0.4,7.7,0.5C26,57.4,24.1,60.3,21.3,62.2z"/>
	</g>
</g>
<g>
	<g>
		<path class="st1" d="M-91.3,39.5h-24.6c-1.2,0-2.1,0.9-2.1,2.1v24.7c0,1.1,1,2.1,2.1,2.1h24.6c1.2,0,2.1-0.9,2.1-2.1V41.6
			C-89.2,40.4-90.1,39.5-91.3,39.5z M-109.4,64.1h-4.3V50.3h4.3V64.1z M-111.6,48.4c-1.4,0-2.5-1.1-2.5-2.5c0-1.4,1.1-2.5,2.5-2.5
			c1.4,0,2.5,1.1,2.5,2.5C-109.1,47.3-110.2,48.4-111.6,48.4z M-93.4,64.1h-4.3v-6.7c0-1.6,0-3.6-2.2-3.6c-2.2,0-2.6,1.7-2.6,3.5
			v6.8h-4.3V50.3h4.1v1.9h0.1c0.6-1.1,2-2.2,4-2.2c4.3,0,5.1,2.8,5.1,6.6V64.1z"/>
	</g>
</g>
</svg>
