<?xml version="1.0" encoding="utf-8"?>
<!-- Generator: Adobe Illustrator 19.1.0, SVG Export Plug-In . SVG Version: 6.00 Build 0)  -->
<!DOCTYPE svg PUBLIC "-//W3C//DTD SVG 1.1//EN" "http://www.w3.org/Graphics/SVG/1.1/DTD/svg11.dtd">
<svg version="1.1" id="Layer_1" xmlns="http://www.w3.org/2000/svg" xmlns:xlink="http://www.w3.org/1999/xlink" x="0px" y="0px"
	 viewBox="0 0 28.8 28.8" style="enable-background:new 0 0 28.8 28.8;" xml:space="preserve">
<style type="text/css">
	.st0{fill:#393939;}
	.st1{fill:#26B99A;}
	.st2{fill-rule:evenodd;clip-rule:evenodd;fill:#393939;}
	.st3{fill-rule:evenodd;clip-rule:evenodd;fill:#26B99A;}
</style>
<g>
	<g>
		<path class="st0" d="M-51.5-39.5H-76c-1.2,0-2.1,0.9-2.1,2.1v24.7c0,1.1,1,2.1,2.1,2.1h24.6c1.2,0,2.1-0.9,2.1-2.1v-24.7
			C-49.3-38.6-50.3-39.5-51.5-39.5z M-69.6-14.9h-4.3v-13.8h4.3V-14.9z M-71.8-30.6c-1.4,0-2.5-1.1-2.5-2.5c0-1.4,1.1-2.5,2.5-2.5
			c1.4,0,2.5,1.1,2.5,2.5C-69.3-31.7-70.4-30.6-71.8-30.6z M-53.6-14.9h-4.3v-6.7c0-1.6,0-3.6-2.2-3.6c-2.2,0-2.6,1.7-2.6,3.5v6.8
			h-4.3v-13.8h4.1v1.9h0.1c0.6-1.1,2-2.2,4-2.2c4.3,0,5.1,2.8,5.1,6.6V-14.9z"/>
	</g>
</g>
<path class="st0" d="M-9.7-34.8c-1.1,0.5-2.2,0.8-3.4,0.9c1.2-0.7,2.2-1.9,2.6-3.3c-1.1,0.7-2.4,1.2-3.8,1.4
	c-1.1-1.1-2.6-1.9-4.3-1.9c-3.3,0-5.9,2.6-5.9,5.9c0,0.5,0.1,0.9,0.2,1.3c-4.9-0.2-9.3-2.6-12.2-6.2c-0.5,0.9-0.8,1.9-0.8,3
	c0,2.1,1,3.9,2.6,4.9c-1,0-1.9-0.3-2.7-0.7c0,0,0,0,0,0.1c0,2.9,2,5.3,4.7,5.8c-0.5,0.1-1,0.2-1.6,0.2c-0.4,0-0.8,0-1.1-0.1
	c0.8,2.4,2.9,4.1,5.5,4.1c-2,1.6-4.6,2.5-7.3,2.5c-0.5,0-0.9,0-1.4-0.1c2.6,1.7,5.7,2.7,9.1,2.7c10.9,0,16.8-9,16.8-16.8
	c0-0.3,0-0.5,0-0.8C-11.5-32.5-10.4-33.6-9.7-34.8z"/>
<path class="st1" d="M-9.7,4.7c-1.1,0.5-2.2,0.8-3.4,0.9c1.2-0.7,2.2-1.9,2.6-3.3c-1.1,0.7-2.4,1.2-3.8,1.4C-15.3,2.7-16.8,2-18.5,2
	c-3.3,0-5.9,2.6-5.9,5.9c0,0.5,0.1,0.9,0.2,1.3c-4.9-0.2-9.3-2.6-12.2-6.2c-0.5,0.9-0.8,1.9-0.8,3c0,2.1,1,3.9,2.6,4.9
	c-1,0-1.9-0.3-2.7-0.7c0,0,0,0,0,0.1c0,2.9,2,5.3,4.7,5.8c-0.5,0.1-1,0.2-1.6,0.2c-0.4,0-0.8,0-1.1-0.1c0.8,2.4,2.9,4.1,5.5,4.1
	c-2,1.6-4.6,2.5-7.3,2.5c-0.5,0-0.9,0-1.4-0.1c2.6,1.7,5.7,2.7,9.1,2.7c10.9,0,16.8-9,16.8-16.8c0-0.3,0-0.5,0-0.8
	C-11.5,7-10.4,5.9-9.7,4.7z"/>
<path class="st2" d="M25.5-27.3H23c0.2,0.7,0.3,1.4,0.3,2.2c0,4.9-4,8.9-8.9,8.9c-4.9,0-8.9-4-8.9-8.9c0-0.8,0.1-1.5,0.3-2.2H3.3
	v12.2c0,0.6,0.5,1.1,1.1,1.1h19.9c0.6,0,1.1-0.5,1.1-1.1V-27.3z M25.5-35c0-0.6-0.5-1.1-1.1-1.1h-3.3c-0.6,0-1.1,0.5-1.1,1.1v3.3
	c0,0.6,0.5,1.1,1.1,1.1h3.3c0.6,0,1.1-0.5,1.1-1.1V-35z M14.4-30.6c-3.1,0-5.5,2.5-5.5,5.5c0,3.1,2.5,5.5,5.5,5.5S20-22,20-25.1
	C20-28.1,17.5-30.6,14.4-30.6 M25.5-10.7H3.3C1.5-10.7,0-12.2,0-14v-22.1c0-1.8,1.5-3.3,3.3-3.3h22.1c1.8,0,3.3,1.5,3.3,3.3V-14
	C28.8-12.2,27.3-10.7,25.5-10.7"/>
<path class="st3" d="M25.5,12.2H23c0.2,0.7,0.3,1.4,0.3,2.2c0,4.9-4,8.9-8.9,8.9c-4.9,0-8.9-4-8.9-8.9c0-0.8,0.1-1.5,0.3-2.2H3.3
	v12.2c0,0.6,0.5,1.1,1.1,1.1h19.9c0.6,0,1.1-0.5,1.1-1.1V12.2z M25.5,4.5c0-0.6-0.5-1.1-1.1-1.1h-3.3c-0.6,0-1.1,0.5-1.1,1.1v3.3
	c0,0.6,0.5,1.1,1.1,1.1h3.3c0.6,0,1.1-0.5,1.1-1.1V4.5z M14.4,8.9c-3.1,0-5.5,2.5-5.5,5.5c0,3.1,2.5,5.5,5.5,5.5s5.5-2.5,5.5-5.5
	C20,11.4,17.5,8.9,14.4,8.9 M25.5,28.8H3.3c-1.8,0-3.3-1.5-3.3-3.3V3.3C0,1.5,1.5,0,3.3,0h22.1c1.8,0,3.3,1.5,3.3,3.3v22.1
	C28.8,27.3,27.3,28.8,25.5,28.8"/>
<g id="ball_2_">
	<g>
		<path class="st0" d="M54.3-39.5c-7.9,0-14.4,6.5-14.4,14.4s6.5,14.4,14.4,14.4s14.4-6.5,14.4-14.4S62.2-39.5,54.3-39.5z
			 M63.8-32.8c1.7,2.1,2.7,4.8,2.8,7.7c-0.4-0.1-4.5-0.9-8.6-0.4c-0.1-0.2-0.2-0.4-0.3-0.6c-0.3-0.6-0.5-1.2-0.8-1.8
			C61.5-29.8,63.5-32.5,63.8-32.8z M54.3-37.4c3.1,0,6,1.2,8.1,3.1c-0.2,0.3-2.1,2.8-6.4,4.4c-2-3.7-4.2-6.7-4.6-7.2
			C52.3-37.2,53.3-37.4,54.3-37.4z M49-36.2c0.3,0.4,2.5,3.5,4.6,7.1c-5.8,1.5-10.8,1.5-11.4,1.5C43-31.4,45.6-34.6,49-36.2z
			 M42-25.1c0-0.1,0-0.3,0-0.4c0.5,0,6.5,0.1,12.6-1.7c0.4,0.7,0.7,1.4,1,2.1c-0.2,0-0.3,0.1-0.5,0.1c-6.3,2-9.7,7.6-10,8.1
			C43.2-19,42-21.9,42-25.1z M54.3-12.8c-2.8,0-5.5-1-7.5-2.6c0.2-0.5,2.7-5.3,9.6-7.7c0,0,0.1,0,0.1,0c1.7,4.5,2.4,8.2,2.6,9.3
			C57.6-13.1,56-12.8,54.3-12.8z M61.1-14.9c-0.1-0.7-0.8-4.3-2.4-8.8c3.9-0.6,7.2,0.4,7.7,0.5C65.9-19.7,63.9-16.7,61.1-14.9z"/>
	</g>
</g>
<g id="ball_3_">
	<g>
		<path class="st1" d="M54.3-1.9c-7.9,0-14.4,6.5-14.4,14.4s6.5,14.4,14.4,14.4s14.4-6.5,14.4-14.4S62.2-1.9,54.3-1.9z M63.8,4.7
			c1.7,2.1,2.7,4.8,2.8,7.7c-0.4-0.1-4.5-0.9-8.6-0.4c-0.1-0.2-0.2-0.4-0.3-0.6c-0.3-0.6-0.5-1.2-0.8-1.8
			C61.5,7.7,63.5,5.1,63.8,4.7z M54.3,0.2c3.1,0,6,1.2,8.1,3.1c-0.2,0.3-2.1,2.8-6.4,4.4C54,4,51.7,1,51.4,0.6
			C52.3,0.3,53.3,0.2,54.3,0.2z M49,1.4c0.3,0.4,2.5,3.5,4.6,7.1C47.9,10,42.8,10,42.2,10C43,6.2,45.6,3,49,1.4z M42,12.5
			c0-0.1,0-0.3,0-0.4c0.5,0,6.5,0.1,12.6-1.7c0.4,0.7,0.7,1.4,1,2.1c-0.2,0-0.3,0.1-0.5,0.1c-6.3,2-9.7,7.6-10,8.1
			C43.2,18.5,42,15.7,42,12.5z M54.3,24.8c-2.8,0-5.5-1-7.5-2.6c0.2-0.5,2.7-5.3,9.6-7.7c0,0,0.1,0,0.1,0c1.7,4.5,2.4,8.2,2.6,9.3
			C57.6,24.4,56,24.8,54.3,24.8z M61.1,22.7c-0.1-0.7-0.8-4.3-2.4-8.8c3.9-0.6,7.2,0.4,7.7,0.5C65.9,17.9,63.9,20.8,61.1,22.7z"/>
	</g>
</g>
<g>
	<g>
		<path class="st1" d="M-51.5,0H-76c-1.2,0-2.1,0.9-2.1,2.1v24.7c0,1.1,1,2.1,2.1,2.1h24.6c1.2,0,2.1-0.9,2.1-2.1V2.1
			C-49.3,0.9-50.3,0-51.5,0z M-69.6,24.6h-4.3V10.8h4.3V24.6z M-71.8,8.9c-1.4,0-2.5-1.1-2.5-2.5c0-1.4,1.1-2.5,2.5-2.5
			c1.4,0,2.5,1.1,2.5,2.5C-69.3,7.8-70.4,8.9-71.8,8.9z M-53.6,24.6h-4.3v-6.7c0-1.6,0-3.6-2.2-3.6c-2.2,0-2.6,1.7-2.6,3.5v6.8h-4.3
			V10.8h4.1v1.9h0.1c0.6-1.1,2-2.2,4-2.2c4.3,0,5.1,2.8,5.1,6.6V24.6z"/>
	</g>
</g>
</svg>
