<?xml version="1.0" encoding="utf-8"?>
<!-- Generator: Adobe Illustrator 19.1.0, SVG Export Plug-In . SVG Version: 6.00 Build 0)  -->
<!DOCTYPE svg PUBLIC "-//W3C//DTD SVG 1.1//EN" "http://www.w3.org/Graphics/SVG/1.1/DTD/svg11.dtd">
<svg version="1.1" id="Layer_1" xmlns="http://www.w3.org/2000/svg" xmlns:xlink="http://www.w3.org/1999/xlink" x="0px" y="0px"
	 viewBox="0 0 28.8 28.8" style="enable-background:new 0 0 28.8 28.8;" xml:space="preserve">
<style type="text/css">
	.st0{fill:#393939;}
	.st1{fill:#26B99A;}
	.st2{fill-rule:evenodd;clip-rule:evenodd;fill:#393939;}
	.st3{fill-rule:evenodd;clip-rule:evenodd;fill:#26B99A;}
</style>
<g>
	<g>
		<path class="st0" d="M-51.5,0H-76c-1.2,0-2.1,0.9-2.1,2.1v24.7c0,1.1,1,2.1,2.1,2.1h24.6c1.2,0,2.1-0.9,2.1-2.1V2.1
			C-49.3,0.9-50.3,0-51.5,0z M-69.6,24.6h-4.3V10.8h4.3V24.6z M-71.8,8.9c-1.4,0-2.5-1.1-2.5-2.5c0-1.4,1.1-2.5,2.5-2.5
			c1.4,0,2.5,1.1,2.5,2.5C-69.3,7.8-70.4,8.9-71.8,8.9z M-53.6,24.6h-4.3v-6.7c0-1.6,0-3.6-2.2-3.6c-2.2,0-2.6,1.7-2.6,3.5v6.8h-4.3
			V10.8h4.1v1.9h0.1c0.6-1.1,2-2.2,4-2.2c4.3,0,5.1,2.8,5.1,6.6V24.6z"/>
	</g>
</g>
<path class="st0" d="M-9.7,4.7c-1.1,0.5-2.2,0.8-3.4,0.9c1.2-0.7,2.2-1.9,2.6-3.3c-1.1,0.7-2.4,1.2-3.8,1.4C-15.3,2.7-16.8,2-18.5,2
	c-3.3,0-5.9,2.6-5.9,5.9c0,0.5,0.1,0.9,0.2,1.3c-4.9-0.2-9.3-2.6-12.2-6.2c-0.5,0.9-0.8,1.9-0.8,3c0,2.1,1,3.9,2.6,4.9
	c-1,0-1.9-0.3-2.7-0.7c0,0,0,0,0,0.1c0,2.9,2,5.3,4.7,5.8c-0.5,0.1-1,0.2-1.6,0.2c-0.4,0-0.8,0-1.1-0.1c0.8,2.4,2.9,4.1,5.5,4.1
	c-2,1.6-4.6,2.5-7.3,2.5c-0.5,0-0.9,0-1.4-0.1c2.6,1.7,5.7,2.7,9.1,2.7c10.9,0,16.8-9,16.8-16.8c0-0.3,0-0.5,0-0.8
	C-11.5,7-10.4,5.9-9.7,4.7z"/>
<path class="st1" d="M-9.7,44.2c-1.1,0.5-2.2,0.8-3.4,0.9c1.2-0.7,2.2-1.9,2.6-3.3c-1.1,0.7-2.4,1.2-3.8,1.4
	c-1.1-1.1-2.6-1.9-4.3-1.9c-3.3,0-5.9,2.6-5.9,5.9c0,0.5,0.1,0.9,0.2,1.3c-4.9-0.2-9.3-2.6-12.2-6.2c-0.5,0.9-0.8,1.9-0.8,3
	c0,2.1,1,3.9,2.6,4.9c-1,0-1.9-0.3-2.7-0.7c0,0,0,0,0,0.1c0,2.9,2,5.3,4.7,5.8c-0.5,0.1-1,0.2-1.6,0.2c-0.4,0-0.8,0-1.1-0.1
	c0.8,2.4,2.9,4.1,5.5,4.1c-2,1.6-4.6,2.5-7.3,2.5c-0.5,0-0.9,0-1.4-0.1c2.6,1.7,5.7,2.7,9.1,2.7c10.9,0,16.8-9,16.8-16.8
	c0-0.3,0-0.5,0-0.8C-11.5,46.5-10.4,45.4-9.7,44.2z"/>
<path class="st2" d="M25.5,12.2H23c0.2,0.7,0.3,1.4,0.3,2.2c0,4.9-4,8.9-8.9,8.9c-4.9,0-8.9-4-8.9-8.9c0-0.8,0.1-1.5,0.3-2.2H3.3
	v12.2c0,0.6,0.5,1.1,1.1,1.1h19.9c0.6,0,1.1-0.5,1.1-1.1V12.2z M25.5,4.5c0-0.6-0.5-1.1-1.1-1.1h-3.3c-0.6,0-1.1,0.5-1.1,1.1v3.3
	c0,0.6,0.5,1.1,1.1,1.1h3.3c0.6,0,1.1-0.5,1.1-1.1V4.5z M14.4,8.9c-3.1,0-5.5,2.5-5.5,5.5c0,3.1,2.5,5.5,5.5,5.5s5.5-2.5,5.5-5.5
	C20,11.4,17.5,8.9,14.4,8.9 M25.5,28.8H3.3c-1.8,0-3.3-1.5-3.3-3.3V3.3C0,1.5,1.5,0,3.3,0h22.1c1.8,0,3.3,1.5,3.3,3.3v22.1
	C28.8,27.3,27.3,28.8,25.5,28.8"/>
<path class="st3" d="M25.5,51.7H23c0.2,0.7,0.3,1.4,0.3,2.2c0,4.9-4,8.9-8.9,8.9c-4.9,0-8.9-4-8.9-8.9c0-0.8,0.1-1.5,0.3-2.2H3.3
	v12.2c0,0.6,0.5,1.1,1.1,1.1h19.9c0.6,0,1.1-0.5,1.1-1.1V51.7z M25.5,44c0-0.6-0.5-1.1-1.1-1.1h-3.3c-0.6,0-1.1,0.5-1.1,1.1v3.3
	c0,0.6,0.5,1.1,1.1,1.1h3.3c0.6,0,1.1-0.5,1.1-1.1V44z M14.4,48.4c-3.1,0-5.5,2.5-5.5,5.5c0,3.1,2.5,5.5,5.5,5.5S20,57,20,53.9
	C20,50.9,17.5,48.4,14.4,48.4 M25.5,68.3H3.3C1.5,68.3,0,66.8,0,65V42.8c0-1.8,1.5-3.3,3.3-3.3h22.1c1.8,0,3.3,1.5,3.3,3.3V65
	C28.8,66.8,27.3,68.3,25.5,68.3"/>
<g id="ball_2_">
	<g>
		<path class="st0" d="M54.3,0c-7.9,0-14.4,6.5-14.4,14.4s6.5,14.4,14.4,14.4s14.4-6.5,14.4-14.4S62.2,0,54.3,0z M63.8,6.7
			c1.7,2.1,2.7,4.8,2.8,7.7c-0.4-0.1-4.5-0.9-8.6-0.4c-0.1-0.2-0.2-0.4-0.3-0.6c-0.3-0.6-0.5-1.2-0.8-1.8C61.5,9.7,63.5,7,63.8,6.7z
			 M54.3,2.1c3.1,0,6,1.2,8.1,3.1C62.2,5.6,60.4,8,56,9.7c-2-3.7-4.2-6.7-4.6-7.2C52.3,2.3,53.3,2.1,54.3,2.1z M49,3.3
			c0.3,0.4,2.5,3.5,4.6,7.1c-5.8,1.5-10.8,1.5-11.4,1.5C43,8.1,45.6,4.9,49,3.3z M42,14.4c0-0.1,0-0.3,0-0.4c0.5,0,6.5,0.1,12.6-1.7
			c0.4,0.7,0.7,1.4,1,2.1c-0.2,0-0.3,0.1-0.5,0.1c-6.3,2-9.7,7.6-10,8.1C43.2,20.5,42,17.6,42,14.4z M54.3,26.7
			c-2.8,0-5.5-1-7.5-2.6c0.2-0.5,2.7-5.3,9.6-7.7c0,0,0.1,0,0.1,0c1.7,4.5,2.4,8.2,2.6,9.3C57.6,26.4,56,26.7,54.3,26.7z M61.1,24.6
			c-0.1-0.7-0.8-4.3-2.4-8.8c3.9-0.6,7.2,0.4,7.7,0.5C65.9,19.8,63.9,22.8,61.1,24.6z"/>
	</g>
</g>
<g id="ball_3_">
	<g>
		<path class="st1" d="M54.3,37.6c-7.9,0-14.4,6.5-14.4,14.4s6.5,14.4,14.4,14.4S68.7,59.9,68.7,52S62.2,37.6,54.3,37.6z M63.8,44.2
			c1.7,2.1,2.7,4.8,2.8,7.7c-0.4-0.1-4.5-0.9-8.6-0.4c-0.1-0.2-0.2-0.4-0.3-0.6c-0.3-0.6-0.5-1.2-0.8-1.8
			C61.5,47.2,63.5,44.6,63.8,44.2z M54.3,39.7c3.1,0,6,1.2,8.1,3.1c-0.2,0.3-2.1,2.8-6.4,4.4c-2-3.7-4.2-6.7-4.6-7.2
			C52.3,39.8,53.3,39.7,54.3,39.7z M49,40.9c0.3,0.4,2.5,3.5,4.6,7.1c-5.8,1.5-10.8,1.5-11.4,1.5C43,45.7,45.6,42.5,49,40.9z M42,52
			c0-0.1,0-0.3,0-0.4c0.5,0,6.5,0.1,12.6-1.7c0.4,0.7,0.7,1.4,1,2.1c-0.2,0-0.3,0.1-0.5,0.1c-6.3,2-9.7,7.6-10,8.1
			C43.2,58,42,55.2,42,52z M54.3,64.3c-2.8,0-5.5-1-7.5-2.6c0.2-0.5,2.7-5.3,9.6-7.7c0,0,0.1,0,0.1,0c1.7,4.5,2.4,8.2,2.6,9.3
			C57.6,63.9,56,64.3,54.3,64.3z M61.1,62.2c-0.1-0.7-0.8-4.3-2.4-8.8c3.9-0.6,7.2,0.4,7.7,0.5C65.9,57.4,63.9,60.3,61.1,62.2z"/>
	</g>
</g>
<g>
	<g>
		<path class="st1" d="M-51.5,39.5H-76c-1.2,0-2.1,0.9-2.1,2.1v24.7c0,1.1,1,2.1,2.1,2.1h24.6c1.2,0,2.1-0.9,2.1-2.1V41.6
			C-49.3,40.4-50.3,39.5-51.5,39.5z M-69.6,64.1h-4.3V50.3h4.3V64.1z M-71.8,48.4c-1.4,0-2.5-1.1-2.5-2.5c0-1.4,1.1-2.5,2.5-2.5
			c1.4,0,2.5,1.1,2.5,2.5C-69.3,47.3-70.4,48.4-71.8,48.4z M-53.6,64.1h-4.3v-6.7c0-1.6,0-3.6-2.2-3.6c-2.2,0-2.6,1.7-2.6,3.5v6.8
			h-4.3V50.3h4.1v1.9h0.1c0.6-1.1,2-2.2,4-2.2c4.3,0,5.1,2.8,5.1,6.6V64.1z"/>
	</g>
</g>
</svg>
