<?xml version="1.0" encoding="utf-8"?>
<!-- Generator: Adobe Illustrator 19.1.0, SVG Export Plug-In . SVG Version: 6.00 Build 0)  -->
<!DOCTYPE svg PUBLIC "-//W3C//DTD SVG 1.1//EN" "http://www.w3.org/Graphics/SVG/1.1/DTD/svg11.dtd">
<svg version="1.1" id="Layer_1" xmlns="http://www.w3.org/2000/svg" xmlns:xlink="http://www.w3.org/1999/xlink" x="0px" y="0px"
	 viewBox="0 0 28.8 28.8" style="enable-background:new 0 0 28.8 28.8;" xml:space="preserve">
<style type="text/css">
	.st0{fill:#393939;}
	.st1{fill:#26B99A;}
	.st2{fill-rule:evenodd;clip-rule:evenodd;fill:#393939;}
	.st3{fill-rule:evenodd;clip-rule:evenodd;fill:#26B99A;}
</style>
<g>
	<g>
		<path class="st0" d="M26.7,0H2.1C1,0,0,0.9,0,2.1v24.7c0,1.1,1,2.1,2.1,2.1h24.6c1.2,0,2.1-0.9,2.1-2.1V2.1
			C28.8,0.9,27.9,0,26.7,0z M8.6,24.6H4.3V10.8h4.3V24.6z M6.4,8.9C5,8.9,3.9,7.8,3.9,6.4C3.9,5.1,5,4,6.4,4c1.4,0,2.5,1.1,2.5,2.5
			C8.9,7.8,7.8,8.9,6.4,8.9z M24.6,24.6h-4.3v-6.7c0-1.6,0-3.6-2.2-3.6c-2.2,0-2.6,1.7-2.6,3.5v6.8h-4.3V10.8h4.1v1.9h0.1
			c0.6-1.1,2-2.2,4-2.2c4.3,0,5.1,2.8,5.1,6.6V24.6z"/>
	</g>
</g>
<path class="st0" d="M68.5,4.7c-1.1,0.5-2.2,0.8-3.4,0.9c1.2-0.7,2.2-1.9,2.6-3.3c-1.1,0.7-2.4,1.2-3.8,1.4C62.9,2.7,61.3,2,59.6,2
	c-3.3,0-5.9,2.6-5.9,5.9c0,0.5,0.1,0.9,0.2,1.3C49,9,44.6,6.6,41.7,3.1c-0.5,0.9-0.8,1.9-0.8,3c0,2.1,1,3.9,2.6,4.9
	c-1,0-1.9-0.3-2.7-0.7c0,0,0,0,0,0.1c0,2.9,2,5.3,4.7,5.8c-0.5,0.1-1,0.2-1.6,0.2c-0.4,0-0.8,0-1.1-0.1c0.8,2.4,2.9,4.1,5.5,4.1
	c-2,1.6-4.6,2.5-7.3,2.5c-0.5,0-0.9,0-1.4-0.1c2.6,1.7,5.7,2.7,9.1,2.7c10.9,0,16.8-9,16.8-16.8c0-0.3,0-0.5,0-0.8
	C66.7,7,67.7,5.9,68.5,4.7z"/>
<path class="st1" d="M68.5,44.2c-1.1,0.5-2.2,0.8-3.4,0.9c1.2-0.7,2.2-1.9,2.6-3.3c-1.1,0.7-2.4,1.2-3.8,1.4
	c-1.1-1.1-2.6-1.9-4.3-1.9c-3.3,0-5.9,2.6-5.9,5.9c0,0.5,0.1,0.9,0.2,1.3c-4.9-0.2-9.3-2.6-12.2-6.2c-0.5,0.9-0.8,1.9-0.8,3
	c0,2.1,1,3.9,2.6,4.9c-1,0-1.9-0.3-2.7-0.7c0,0,0,0,0,0.1c0,2.9,2,5.3,4.7,5.8c-0.5,0.1-1,0.2-1.6,0.2c-0.4,0-0.8,0-1.1-0.1
	c0.8,2.4,2.9,4.1,5.5,4.1c-2,1.6-4.6,2.5-7.3,2.5c-0.5,0-0.9,0-1.4-0.1c2.6,1.7,5.7,2.7,9.1,2.7c10.9,0,16.8-9,16.8-16.8
	c0-0.3,0-0.5,0-0.8C66.7,46.5,67.7,45.4,68.5,44.2z"/>
<path class="st2" d="M103.7,12.2h-2.5c0.2,0.7,0.3,1.4,0.3,2.2c0,4.9-4,8.9-8.9,8.9c-4.9,0-8.9-4-8.9-8.9c0-0.8,0.1-1.5,0.3-2.2
	h-2.5v12.2c0,0.6,0.5,1.1,1.1,1.1h19.9c0.6,0,1.1-0.5,1.1-1.1V12.2z M103.7,4.5c0-0.6-0.5-1.1-1.1-1.1h-3.3c-0.6,0-1.1,0.5-1.1,1.1
	v3.3c0,0.6,0.5,1.1,1.1,1.1h3.3c0.6,0,1.1-0.5,1.1-1.1V4.5z M92.6,8.9c-3.1,0-5.5,2.5-5.5,5.5c0,3.1,2.5,5.5,5.5,5.5
	c3.1,0,5.5-2.5,5.5-5.5C98.1,11.4,95.6,8.9,92.6,8.9 M103.7,28.8H81.5c-1.8,0-3.3-1.5-3.3-3.3V3.3c0-1.8,1.5-3.3,3.3-3.3h22.1
	c1.8,0,3.3,1.5,3.3,3.3v22.1C107,27.3,105.5,28.8,103.7,28.8"/>
<path class="st3" d="M103.7,51.7h-2.5c0.2,0.7,0.3,1.4,0.3,2.2c0,4.9-4,8.9-8.9,8.9c-4.9,0-8.9-4-8.9-8.9c0-0.8,0.1-1.5,0.3-2.2
	h-2.5v12.2c0,0.6,0.5,1.1,1.1,1.1h19.9c0.6,0,1.1-0.5,1.1-1.1V51.7z M103.7,44c0-0.6-0.5-1.1-1.1-1.1h-3.3c-0.6,0-1.1,0.5-1.1,1.1
	v3.3c0,0.6,0.5,1.1,1.1,1.1h3.3c0.6,0,1.1-0.5,1.1-1.1V44z M92.6,48.4c-3.1,0-5.5,2.5-5.5,5.5c0,3.1,2.5,5.5,5.5,5.5
	c3.1,0,5.5-2.5,5.5-5.5C98.1,50.9,95.6,48.4,92.6,48.4 M103.7,68.3H81.5c-1.8,0-3.3-1.5-3.3-3.3V42.8c0-1.8,1.5-3.3,3.3-3.3h22.1
	c1.8,0,3.3,1.5,3.3,3.3V65C107,66.8,105.5,68.3,103.7,68.3"/>
<g id="ball_2_">
	<g>
		<path class="st0" d="M132.4,0c-7.9,0-14.4,6.5-14.4,14.4s6.5,14.4,14.4,14.4s14.4-6.5,14.4-14.4S140.4,0,132.4,0z M142,6.7
			c1.7,2.1,2.7,4.8,2.8,7.7c-0.4-0.1-4.5-0.9-8.6-0.4c-0.1-0.2-0.2-0.4-0.3-0.6c-0.3-0.6-0.5-1.2-0.8-1.8C139.6,9.7,141.7,7,142,6.7
			z M132.4,2.1c3.1,0,6,1.2,8.1,3.1c-0.2,0.3-2.1,2.8-6.4,4.4c-2-3.7-4.2-6.7-4.6-7.2C130.5,2.3,131.5,2.1,132.4,2.1z M127.2,3.3
			c0.3,0.4,2.5,3.5,4.6,7.1c-5.8,1.5-10.8,1.5-11.4,1.5C121.2,8.1,123.8,4.9,127.2,3.3z M120.1,14.4c0-0.1,0-0.3,0-0.4
			c0.5,0,6.5,0.1,12.6-1.7c0.4,0.7,0.7,1.4,1,2.1c-0.2,0-0.3,0.1-0.5,0.1c-6.3,2-9.7,7.6-10,8.1C121.3,20.5,120.1,17.6,120.1,14.4z
			 M132.4,26.7c-2.8,0-5.5-1-7.5-2.6c0.2-0.5,2.7-5.3,9.6-7.7c0,0,0.1,0,0.1,0c1.7,4.5,2.4,8.2,2.6,9.3
			C135.8,26.4,134.1,26.7,132.4,26.7z M139.3,24.6c-0.1-0.7-0.8-4.3-2.4-8.8c3.9-0.6,7.2,0.4,7.7,0.5
			C144,19.8,142.1,22.8,139.3,24.6z"/>
	</g>
</g>
<g id="ball_3_">
	<g>
		<path class="st1" d="M132.4,37.6c-7.9,0-14.4,6.5-14.4,14.4s6.5,14.4,14.4,14.4s14.4-6.5,14.4-14.4S140.4,37.6,132.4,37.6z
			 M142,44.2c1.7,2.1,2.7,4.8,2.8,7.7c-0.4-0.1-4.5-0.9-8.6-0.4c-0.1-0.2-0.2-0.4-0.3-0.6c-0.3-0.6-0.5-1.2-0.8-1.8
			C139.6,47.2,141.7,44.6,142,44.2z M132.4,39.7c3.1,0,6,1.2,8.1,3.1c-0.2,0.3-2.1,2.8-6.4,4.4c-2-3.7-4.2-6.7-4.6-7.2
			C130.5,39.8,131.5,39.7,132.4,39.7z M127.2,40.9c0.3,0.4,2.5,3.5,4.6,7.1c-5.8,1.5-10.8,1.5-11.4,1.5
			C121.2,45.7,123.8,42.5,127.2,40.9z M120.1,52c0-0.1,0-0.3,0-0.4c0.5,0,6.5,0.1,12.6-1.7c0.4,0.7,0.7,1.4,1,2.1
			c-0.2,0-0.3,0.1-0.5,0.1c-6.3,2-9.7,7.6-10,8.1C121.3,58,120.1,55.2,120.1,52z M132.4,64.3c-2.8,0-5.5-1-7.5-2.6
			c0.2-0.5,2.7-5.3,9.6-7.7c0,0,0.1,0,0.1,0c1.7,4.5,2.4,8.2,2.6,9.3C135.8,63.9,134.1,64.3,132.4,64.3z M139.3,62.2
			c-0.1-0.7-0.8-4.3-2.4-8.8c3.9-0.6,7.2,0.4,7.7,0.5C144,57.4,142.1,60.3,139.3,62.2z"/>
	</g>
</g>
<g>
	<g>
		<path class="st1" d="M26.7,39.5H2.1C1,39.5,0,40.4,0,41.6v24.7c0,1.1,1,2.1,2.1,2.1h24.6c1.2,0,2.1-0.9,2.1-2.1V41.6
			C28.8,40.4,27.9,39.5,26.7,39.5z M8.6,64.1H4.3V50.3h4.3V64.1z M6.4,48.4c-1.4,0-2.5-1.1-2.5-2.5c0-1.4,1.1-2.5,2.5-2.5
			c1.4,0,2.5,1.1,2.5,2.5C8.9,47.3,7.8,48.4,6.4,48.4z M24.6,64.1h-4.3v-6.7c0-1.6,0-3.6-2.2-3.6c-2.2,0-2.6,1.7-2.6,3.5v6.8h-4.3
			V50.3h4.1v1.9h0.1c0.6-1.1,2-2.2,4-2.2c4.3,0,5.1,2.8,5.1,6.6V64.1z"/>
	</g>
</g>
</svg>
