<?xml version="1.0" encoding="utf-8"?>
<!-- Generator: Adobe Illustrator 19.1.0, SVG Export Plug-In . SVG Version: 6.00 Build 0)  -->
<!DOCTYPE svg PUBLIC "-//W3C//DTD SVG 1.1//EN" "http://www.w3.org/Graphics/SVG/1.1/DTD/svg11.dtd">
<svg version="1.1" id="Layer_1" xmlns="http://www.w3.org/2000/svg" xmlns:xlink="http://www.w3.org/1999/xlink" x="0px" y="0px"
	 viewBox="0 0 28.8 28.8" style="enable-background:new 0 0 28.8 28.8;" xml:space="preserve">
<style type="text/css">
	.st0{fill:#393939;}
	.st1{fill:#26B99A;}
	.st2{fill-rule:evenodd;clip-rule:evenodd;fill:#393939;}
	.st3{fill-rule:evenodd;clip-rule:evenodd;fill:#26B99A;}
</style>
<g>
	<g>
		<path class="st0" d="M26.7-39.5H2.1C1-39.5,0-38.6,0-37.4v24.7c0,1.1,1,2.1,2.1,2.1h24.6c1.2,0,2.1-0.9,2.1-2.1v-24.7
			C28.8-38.6,27.9-39.5,26.7-39.5z M8.6-14.9H4.3v-13.8h4.3V-14.9z M6.4-30.6c-1.4,0-2.5-1.1-2.5-2.5c0-1.4,1.1-2.5,2.5-2.5
			c1.4,0,2.5,1.1,2.5,2.5C8.9-31.7,7.8-30.6,6.4-30.6z M24.6-14.9h-4.3v-6.7c0-1.6,0-3.6-2.2-3.6c-2.2,0-2.6,1.7-2.6,3.5v6.8h-4.3
			v-13.8h4.1v1.9h0.1c0.6-1.1,2-2.2,4-2.2c4.3,0,5.1,2.8,5.1,6.6V-14.9z"/>
	</g>
</g>
<path class="st0" d="M68.5-34.8c-1.1,0.5-2.2,0.8-3.4,0.9c1.2-0.7,2.2-1.9,2.6-3.3c-1.1,0.7-2.4,1.2-3.8,1.4
	c-1.1-1.1-2.6-1.9-4.3-1.9c-3.3,0-5.9,2.6-5.9,5.9c0,0.5,0.1,0.9,0.2,1.3c-4.9-0.2-9.3-2.6-12.2-6.2c-0.5,0.9-0.8,1.9-0.8,3
	c0,2.1,1,3.9,2.6,4.9c-1,0-1.9-0.3-2.7-0.7c0,0,0,0,0,0.1c0,2.9,2,5.3,4.7,5.8c-0.5,0.1-1,0.2-1.6,0.2c-0.4,0-0.8,0-1.1-0.1
	c0.8,2.4,2.9,4.1,5.5,4.1c-2,1.6-4.6,2.5-7.3,2.5c-0.5,0-0.9,0-1.4-0.1c2.6,1.7,5.7,2.7,9.1,2.7c10.9,0,16.8-9,16.8-16.8
	c0-0.3,0-0.5,0-0.8C66.7-32.5,67.7-33.6,68.5-34.8z"/>
<path class="st1" d="M68.5,4.7c-1.1,0.5-2.2,0.8-3.4,0.9c1.2-0.7,2.2-1.9,2.6-3.3c-1.1,0.7-2.4,1.2-3.8,1.4C62.9,2.7,61.3,2,59.6,2
	c-3.3,0-5.9,2.6-5.9,5.9c0,0.5,0.1,0.9,0.2,1.3C49,9,44.6,6.6,41.7,3.1c-0.5,0.9-0.8,1.9-0.8,3c0,2.1,1,3.9,2.6,4.9
	c-1,0-1.9-0.3-2.7-0.7c0,0,0,0,0,0.1c0,2.9,2,5.3,4.7,5.8c-0.5,0.1-1,0.2-1.6,0.2c-0.4,0-0.8,0-1.1-0.1c0.8,2.4,2.9,4.1,5.5,4.1
	c-2,1.6-4.6,2.5-7.3,2.5c-0.5,0-0.9,0-1.4-0.1c2.6,1.7,5.7,2.7,9.1,2.7c10.9,0,16.8-9,16.8-16.8c0-0.3,0-0.5,0-0.8
	C66.7,7,67.7,5.9,68.5,4.7z"/>
<path class="st2" d="M103.7-27.3h-2.5c0.2,0.7,0.3,1.4,0.3,2.2c0,4.9-4,8.9-8.9,8.9c-4.9,0-8.9-4-8.9-8.9c0-0.8,0.1-1.5,0.3-2.2
	h-2.5v12.2c0,0.6,0.5,1.1,1.1,1.1h19.9c0.6,0,1.1-0.5,1.1-1.1V-27.3z M103.7-35c0-0.6-0.5-1.1-1.1-1.1h-3.3c-0.6,0-1.1,0.5-1.1,1.1
	v3.3c0,0.6,0.5,1.1,1.1,1.1h3.3c0.6,0,1.1-0.5,1.1-1.1V-35z M92.6-30.6c-3.1,0-5.5,2.5-5.5,5.5c0,3.1,2.5,5.5,5.5,5.5
	c3.1,0,5.5-2.5,5.5-5.5C98.1-28.1,95.6-30.6,92.6-30.6 M103.7-10.7H81.5c-1.8,0-3.3-1.5-3.3-3.3v-22.1c0-1.8,1.5-3.3,3.3-3.3h22.1
	c1.8,0,3.3,1.5,3.3,3.3V-14C107-12.2,105.5-10.7,103.7-10.7"/>
<path class="st3" d="M103.7,12.2h-2.5c0.2,0.7,0.3,1.4,0.3,2.2c0,4.9-4,8.9-8.9,8.9c-4.9,0-8.9-4-8.9-8.9c0-0.8,0.1-1.5,0.3-2.2
	h-2.5v12.2c0,0.6,0.5,1.1,1.1,1.1h19.9c0.6,0,1.1-0.5,1.1-1.1V12.2z M103.7,4.5c0-0.6-0.5-1.1-1.1-1.1h-3.3c-0.6,0-1.1,0.5-1.1,1.1
	v3.3c0,0.6,0.5,1.1,1.1,1.1h3.3c0.6,0,1.1-0.5,1.1-1.1V4.5z M92.6,8.9c-3.1,0-5.5,2.5-5.5,5.5c0,3.1,2.5,5.5,5.5,5.5
	c3.1,0,5.5-2.5,5.5-5.5C98.1,11.4,95.6,8.9,92.6,8.9 M103.7,28.8H81.5c-1.8,0-3.3-1.5-3.3-3.3V3.3c0-1.8,1.5-3.3,3.3-3.3h22.1
	c1.8,0,3.3,1.5,3.3,3.3v22.1C107,27.3,105.5,28.8,103.7,28.8"/>
<g id="ball_2_">
	<g>
		<path class="st0" d="M132.4-39.5c-7.9,0-14.4,6.5-14.4,14.4s6.5,14.4,14.4,14.4s14.4-6.5,14.4-14.4S140.4-39.5,132.4-39.5z
			 M142-32.8c1.7,2.1,2.7,4.8,2.8,7.7c-0.4-0.1-4.5-0.9-8.6-0.4c-0.1-0.2-0.2-0.4-0.3-0.6c-0.3-0.6-0.5-1.2-0.8-1.8
			C139.6-29.8,141.7-32.5,142-32.8z M132.4-37.4c3.1,0,6,1.2,8.1,3.1c-0.2,0.3-2.1,2.8-6.4,4.4c-2-3.7-4.2-6.7-4.6-7.2
			C130.5-37.2,131.5-37.4,132.4-37.4z M127.2-36.2c0.3,0.4,2.5,3.5,4.6,7.1c-5.8,1.5-10.8,1.5-11.4,1.5
			C121.2-31.4,123.8-34.6,127.2-36.2z M120.1-25.1c0-0.1,0-0.3,0-0.4c0.5,0,6.5,0.1,12.6-1.7c0.4,0.7,0.7,1.4,1,2.1
			c-0.2,0-0.3,0.1-0.5,0.1c-6.3,2-9.7,7.6-10,8.1C121.3-19,120.1-21.9,120.1-25.1z M132.4-12.8c-2.8,0-5.5-1-7.5-2.6
			c0.2-0.5,2.7-5.3,9.6-7.7c0,0,0.1,0,0.1,0c1.7,4.5,2.4,8.2,2.6,9.3C135.8-13.1,134.1-12.8,132.4-12.8z M139.3-14.9
			c-0.1-0.7-0.8-4.3-2.4-8.8c3.9-0.6,7.2,0.4,7.7,0.5C144-19.7,142.1-16.7,139.3-14.9z"/>
	</g>
</g>
<g id="ball_3_">
	<g>
		<path class="st1" d="M132.4-1.9c-7.9,0-14.4,6.5-14.4,14.4s6.5,14.4,14.4,14.4s14.4-6.5,14.4-14.4S140.4-1.9,132.4-1.9z M142,4.7
			c1.7,2.1,2.7,4.8,2.8,7.7c-0.4-0.1-4.5-0.9-8.6-0.4c-0.1-0.2-0.2-0.4-0.3-0.6c-0.3-0.6-0.5-1.2-0.8-1.8
			C139.6,7.7,141.7,5.1,142,4.7z M132.4,0.2c3.1,0,6,1.2,8.1,3.1c-0.2,0.3-2.1,2.8-6.4,4.4c-2-3.7-4.2-6.7-4.6-7.2
			C130.5,0.3,131.5,0.2,132.4,0.2z M127.2,1.4c0.3,0.4,2.5,3.5,4.6,7.1C126,10,121,10,120.4,10C121.2,6.2,123.8,3,127.2,1.4z
			 M120.1,12.5c0-0.1,0-0.3,0-0.4c0.5,0,6.5,0.1,12.6-1.7c0.4,0.7,0.7,1.4,1,2.1c-0.2,0-0.3,0.1-0.5,0.1c-6.3,2-9.7,7.6-10,8.1
			C121.3,18.5,120.1,15.7,120.1,12.5z M132.4,24.8c-2.8,0-5.5-1-7.5-2.6c0.2-0.5,2.7-5.3,9.6-7.7c0,0,0.1,0,0.1,0
			c1.7,4.5,2.4,8.2,2.6,9.3C135.8,24.4,134.1,24.8,132.4,24.8z M139.3,22.7c-0.1-0.7-0.8-4.3-2.4-8.8c3.9-0.6,7.2,0.4,7.7,0.5
			C144,17.9,142.1,20.8,139.3,22.7z"/>
	</g>
</g>
<g>
	<g>
		<path class="st1" d="M26.7,0H2.1C1,0,0,0.9,0,2.1v24.7c0,1.1,1,2.1,2.1,2.1h24.6c1.2,0,2.1-0.9,2.1-2.1V2.1
			C28.8,0.9,27.9,0,26.7,0z M8.6,24.6H4.3V10.8h4.3V24.6z M6.4,8.9C5,8.9,3.9,7.8,3.9,6.4C3.9,5.1,5,4,6.4,4c1.4,0,2.5,1.1,2.5,2.5
			C8.9,7.8,7.8,8.9,6.4,8.9z M24.6,24.6h-4.3v-6.7c0-1.6,0-3.6-2.2-3.6c-2.2,0-2.6,1.7-2.6,3.5v6.8h-4.3V10.8h4.1v1.9h0.1
			c0.6-1.1,2-2.2,4-2.2c4.3,0,5.1,2.8,5.1,6.6V24.6z"/>
	</g>
</g>
</svg>
