<?xml version="1.0" encoding="utf-8"?>
<!-- Generator: Adobe Illustrator 19.1.0, SVG Export Plug-In . SVG Version: 6.00 Build 0)  -->
<!DOCTYPE svg PUBLIC "-//W3C//DTD SVG 1.1//EN" "http://www.w3.org/Graphics/SVG/1.1/DTD/svg11.dtd">
<svg version="1.1" id="Layer_1" xmlns="http://www.w3.org/2000/svg" xmlns:xlink="http://www.w3.org/1999/xlink" x="0px" y="0px"
	 viewBox="0 0 28.8 28.8" style="enable-background:new 0 0 28.8 28.8;" xml:space="preserve">
<style type="text/css">
	.st0{fill:#393939;}
	.st1{fill:#26B99A;}
	.st2{fill-rule:evenodd;clip-rule:evenodd;fill:#393939;}
	.st3{fill-rule:evenodd;clip-rule:evenodd;fill:#26B99A;}
</style>
<g>
	<g>
		<path class="st0" d="M-12.9,0h-24.6c-1.2,0-2.1,0.9-2.1,2.1v24.7c0,1.1,1,2.1,2.1,2.1h24.6c1.2,0,2.1-0.9,2.1-2.1V2.1
			C-10.7,0.9-11.7,0-12.9,0z M-31,24.6h-4.3V10.8h4.3V24.6z M-33.2,8.9c-1.4,0-2.5-1.1-2.5-2.5c0-1.4,1.1-2.5,2.5-2.5
			c1.4,0,2.5,1.1,2.5,2.5C-30.7,7.8-31.8,8.9-33.2,8.9z M-15,24.6h-4.3v-6.7c0-1.6,0-3.6-2.2-3.6c-2.2,0-2.6,1.7-2.6,3.5v6.8h-4.3
			V10.8h4.1v1.9h0.1c0.6-1.1,2-2.2,4-2.2c4.3,0,5.1,2.8,5.1,6.6V24.6z"/>
	</g>
</g>
<path class="st0" d="M28.9,4.7c-1.1,0.5-2.2,0.8-3.4,0.9c1.2-0.7,2.2-1.9,2.6-3.3c-1.1,0.7-2.4,1.2-3.8,1.4C23.3,2.7,21.8,2,20.1,2
	c-3.3,0-5.9,2.6-5.9,5.9c0,0.5,0.1,0.9,0.2,1.3C9.4,9,5,6.6,2.1,3.1C1.6,3.9,1.3,4.9,1.3,6c0,2.1,1,3.9,2.6,4.9
	c-1,0-1.9-0.3-2.7-0.7c0,0,0,0,0,0.1c0,2.9,2,5.3,4.7,5.8c-0.5,0.1-1,0.2-1.6,0.2c-0.4,0-0.8,0-1.1-0.1c0.8,2.4,2.9,4.1,5.5,4.1
	c-2,1.6-4.6,2.5-7.3,2.5c-0.5,0-0.9,0-1.4-0.1c2.6,1.7,5.7,2.7,9.1,2.7C20,25.4,26,16.4,26,8.6c0-0.3,0-0.5,0-0.8
	C27.1,7,28.1,5.9,28.9,4.7z"/>
<path class="st1" d="M28.9,44.2c-1.1,0.5-2.2,0.8-3.4,0.9c1.2-0.7,2.2-1.9,2.6-3.3c-1.1,0.7-2.4,1.2-3.8,1.4
	c-1.1-1.1-2.6-1.9-4.3-1.9c-3.3,0-5.9,2.6-5.9,5.9c0,0.5,0.1,0.9,0.2,1.3C9.4,48.5,5,46.1,2.1,42.6c-0.5,0.9-0.8,1.9-0.8,3
	c0,2.1,1,3.9,2.6,4.9c-1,0-1.9-0.3-2.7-0.7c0,0,0,0,0,0.1c0,2.9,2,5.3,4.7,5.8c-0.5,0.1-1,0.2-1.6,0.2c-0.4,0-0.8,0-1.1-0.1
	c0.8,2.4,2.9,4.1,5.5,4.1c-2,1.6-4.6,2.5-7.3,2.5c-0.5,0-0.9,0-1.4-0.1c2.6,1.7,5.7,2.7,9.1,2.7c10.9,0,16.8-9,16.8-16.8
	c0-0.3,0-0.5,0-0.8C27.1,46.5,28.1,45.4,28.9,44.2z"/>
<path class="st2" d="M64.1,12.2h-2.5c0.2,0.7,0.3,1.4,0.3,2.2c0,4.9-4,8.9-8.9,8.9c-4.9,0-8.9-4-8.9-8.9c0-0.8,0.1-1.5,0.3-2.2h-2.5
	v12.2c0,0.6,0.5,1.1,1.1,1.1H63c0.6,0,1.1-0.5,1.1-1.1V12.2z M64.1,4.5c0-0.6-0.5-1.1-1.1-1.1h-3.3c-0.6,0-1.1,0.5-1.1,1.1v3.3
	c0,0.6,0.5,1.1,1.1,1.1H63c0.6,0,1.1-0.5,1.1-1.1V4.5z M53,8.9c-3.1,0-5.5,2.5-5.5,5.5c0,3.1,2.5,5.5,5.5,5.5s5.5-2.5,5.5-5.5
	C58.5,11.4,56.1,8.9,53,8.9 M64.1,28.8H41.9c-1.8,0-3.3-1.5-3.3-3.3V3.3c0-1.8,1.5-3.3,3.3-3.3h22.1c1.8,0,3.3,1.5,3.3,3.3v22.1
	C67.4,27.3,65.9,28.8,64.1,28.8"/>
<path class="st3" d="M64.1,51.7h-2.5c0.2,0.7,0.3,1.4,0.3,2.2c0,4.9-4,8.9-8.9,8.9c-4.9,0-8.9-4-8.9-8.9c0-0.8,0.1-1.5,0.3-2.2h-2.5
	v12.2c0,0.6,0.5,1.1,1.1,1.1H63c0.6,0,1.1-0.5,1.1-1.1V51.7z M64.1,44c0-0.6-0.5-1.1-1.1-1.1h-3.3c-0.6,0-1.1,0.5-1.1,1.1v3.3
	c0,0.6,0.5,1.1,1.1,1.1H63c0.6,0,1.1-0.5,1.1-1.1V44z M53,48.4c-3.1,0-5.5,2.5-5.5,5.5c0,3.1,2.5,5.5,5.5,5.5s5.5-2.5,5.5-5.5
	C58.5,50.9,56.1,48.4,53,48.4 M64.1,68.3H41.9c-1.8,0-3.3-1.5-3.3-3.3V42.8c0-1.8,1.5-3.3,3.3-3.3h22.1c1.8,0,3.3,1.5,3.3,3.3V65
	C67.4,66.8,65.9,68.3,64.1,68.3"/>
<g id="ball_2_">
	<g>
		<path class="st0" d="M92.9,0c-7.9,0-14.4,6.5-14.4,14.4s6.5,14.4,14.4,14.4s14.4-6.5,14.4-14.4S100.8,0,92.9,0z M102.4,6.7
			c1.7,2.1,2.7,4.8,2.8,7.7c-0.4-0.1-4.5-0.9-8.6-0.4c-0.1-0.2-0.2-0.4-0.3-0.6c-0.3-0.6-0.5-1.2-0.8-1.8
			C100.1,9.7,102.1,7,102.4,6.7z M92.9,2.1c3.1,0,6,1.2,8.1,3.1c-0.2,0.3-2.1,2.8-6.4,4.4c-2-3.7-4.2-6.7-4.6-7.2
			C90.9,2.3,91.9,2.1,92.9,2.1z M87.6,3.3c0.3,0.4,2.5,3.5,4.6,7.1c-5.8,1.5-10.8,1.5-11.4,1.5C81.6,8.1,84.2,4.9,87.6,3.3z
			 M80.6,14.4c0-0.1,0-0.3,0-0.4c0.5,0,6.5,0.1,12.6-1.7c0.4,0.7,0.7,1.4,1,2.1c-0.2,0-0.3,0.1-0.5,0.1c-6.3,2-9.7,7.6-10,8.1
			C81.8,20.5,80.6,17.6,80.6,14.4z M92.9,26.7c-2.8,0-5.5-1-7.5-2.6c0.2-0.5,2.7-5.3,9.6-7.7c0,0,0.1,0,0.1,0
			c1.7,4.5,2.4,8.2,2.6,9.3C96.2,26.4,94.6,26.7,92.9,26.7z M99.7,24.6c-0.1-0.7-0.8-4.3-2.4-8.8c3.9-0.6,7.2,0.4,7.7,0.5
			C104.4,19.8,102.5,22.8,99.7,24.6z"/>
	</g>
</g>
<g id="ball_3_">
	<g>
		<path class="st1" d="M92.9,37.6c-7.9,0-14.4,6.5-14.4,14.4s6.5,14.4,14.4,14.4s14.4-6.5,14.4-14.4S100.8,37.6,92.9,37.6z
			 M102.4,44.2c1.7,2.1,2.7,4.8,2.8,7.7c-0.4-0.1-4.5-0.9-8.6-0.4c-0.1-0.2-0.2-0.4-0.3-0.6c-0.3-0.6-0.5-1.2-0.8-1.8
			C100.1,47.2,102.1,44.6,102.4,44.2z M92.9,39.7c3.1,0,6,1.2,8.1,3.1c-0.2,0.3-2.1,2.8-6.4,4.4c-2-3.7-4.2-6.7-4.6-7.2
			C90.9,39.8,91.9,39.7,92.9,39.7z M87.6,40.9c0.3,0.4,2.5,3.5,4.6,7.1c-5.8,1.5-10.8,1.5-11.4,1.5C81.6,45.7,84.2,42.5,87.6,40.9z
			 M80.6,52c0-0.1,0-0.3,0-0.4c0.5,0,6.5,0.1,12.6-1.7c0.4,0.7,0.7,1.4,1,2.1c-0.2,0-0.3,0.1-0.5,0.1c-6.3,2-9.7,7.6-10,8.1
			C81.8,58,80.6,55.2,80.6,52z M92.9,64.3c-2.8,0-5.5-1-7.5-2.6c0.2-0.5,2.7-5.3,9.6-7.7c0,0,0.1,0,0.1,0c1.7,4.5,2.4,8.2,2.6,9.3
			C96.2,63.9,94.6,64.3,92.9,64.3z M99.7,62.2c-0.1-0.7-0.8-4.3-2.4-8.8c3.9-0.6,7.2,0.4,7.7,0.5C104.4,57.4,102.5,60.3,99.7,62.2z"
			/>
	</g>
</g>
<g>
	<g>
		<path class="st1" d="M-12.9,39.5h-24.6c-1.2,0-2.1,0.9-2.1,2.1v24.7c0,1.1,1,2.1,2.1,2.1h24.6c1.2,0,2.1-0.9,2.1-2.1V41.6
			C-10.7,40.4-11.7,39.5-12.9,39.5z M-31,64.1h-4.3V50.3h4.3V64.1z M-33.2,48.4c-1.4,0-2.5-1.1-2.5-2.5c0-1.4,1.1-2.5,2.5-2.5
			c1.4,0,2.5,1.1,2.5,2.5C-30.7,47.3-31.8,48.4-33.2,48.4z M-15,64.1h-4.3v-6.7c0-1.6,0-3.6-2.2-3.6c-2.2,0-2.6,1.7-2.6,3.5v6.8
			h-4.3V50.3h4.1v1.9h0.1c0.6-1.1,2-2.2,4-2.2c4.3,0,5.1,2.8,5.1,6.6V64.1z"/>
	</g>
</g>
</svg>
