<?xml version="1.0" encoding="utf-8"?>
<!-- Generator: Adobe Illustrator 19.1.0, SVG Export Plug-In . SVG Version: 6.00 Build 0)  -->
<!DOCTYPE svg PUBLIC "-//W3C//DTD SVG 1.1//EN" "http://www.w3.org/Graphics/SVG/1.1/DTD/svg11.dtd">
<svg version="1.1" id="Layer_1" xmlns="http://www.w3.org/2000/svg" xmlns:xlink="http://www.w3.org/1999/xlink" x="0px" y="0px"
	 viewBox="0 0 28.8 28.8" style="enable-background:new 0 0 28.8 28.8;" xml:space="preserve">
<style type="text/css">
	.st0{fill:#393939;}
	.st1{fill:#26B99A;}
	.st2{fill-rule:evenodd;clip-rule:evenodd;fill:#393939;}
	.st3{fill-rule:evenodd;clip-rule:evenodd;fill:#26B99A;}
</style>
<g>
	<g>
		<path class="st0" d="M-12.9-39.5h-24.6c-1.2,0-2.1,0.9-2.1,2.1v24.7c0,1.1,1,2.1,2.1,2.1h24.6c1.2,0,2.1-0.9,2.1-2.1v-24.7
			C-10.7-38.6-11.7-39.5-12.9-39.5z M-31-14.9h-4.3v-13.8h4.3V-14.9z M-33.2-30.6c-1.4,0-2.5-1.1-2.5-2.5c0-1.4,1.1-2.5,2.5-2.5
			c1.4,0,2.5,1.1,2.5,2.5C-30.7-31.7-31.8-30.6-33.2-30.6z M-15-14.9h-4.3v-6.7c0-1.6,0-3.6-2.2-3.6c-2.2,0-2.6,1.7-2.6,3.5v6.8
			h-4.3v-13.8h4.1v1.9h0.1c0.6-1.1,2-2.2,4-2.2c4.3,0,5.1,2.8,5.1,6.6V-14.9z"/>
	</g>
</g>
<path class="st0" d="M28.9-34.8c-1.1,0.5-2.2,0.8-3.4,0.9c1.2-0.7,2.2-1.9,2.6-3.3c-1.1,0.7-2.4,1.2-3.8,1.4
	c-1.1-1.1-2.6-1.9-4.3-1.9c-3.3,0-5.9,2.6-5.9,5.9c0,0.5,0.1,0.9,0.2,1.3C9.4-30.5,5-32.9,2.1-36.4c-0.5,0.9-0.8,1.9-0.8,3
	c0,2.1,1,3.9,2.6,4.9c-1,0-1.9-0.3-2.7-0.7c0,0,0,0,0,0.1c0,2.9,2,5.3,4.7,5.8c-0.5,0.1-1,0.2-1.6,0.2c-0.4,0-0.8,0-1.1-0.1
	c0.8,2.4,2.9,4.1,5.5,4.1c-2,1.6-4.6,2.5-7.3,2.5c-0.5,0-0.9,0-1.4-0.1c2.6,1.7,5.7,2.7,9.1,2.7c10.9,0,16.8-9,16.8-16.8
	c0-0.3,0-0.5,0-0.8C27.1-32.5,28.1-33.6,28.9-34.8z"/>
<path class="st1" d="M28.9,4.7c-1.1,0.5-2.2,0.8-3.4,0.9c1.2-0.7,2.2-1.9,2.6-3.3c-1.1,0.7-2.4,1.2-3.8,1.4C23.3,2.7,21.8,2,20.1,2
	c-3.3,0-5.9,2.6-5.9,5.9c0,0.5,0.1,0.9,0.2,1.3C9.4,9,5,6.6,2.1,3.1C1.6,3.9,1.3,4.9,1.3,6c0,2.1,1,3.9,2.6,4.9
	c-1,0-1.9-0.3-2.7-0.7c0,0,0,0,0,0.1c0,2.9,2,5.3,4.7,5.8c-0.5,0.1-1,0.2-1.6,0.2c-0.4,0-0.8,0-1.1-0.1c0.8,2.4,2.9,4.1,5.5,4.1
	c-2,1.6-4.6,2.5-7.3,2.5c-0.5,0-0.9,0-1.4-0.1c2.6,1.7,5.7,2.7,9.1,2.7C20,25.4,26,16.4,26,8.6c0-0.3,0-0.5,0-0.8
	C27.1,7,28.1,5.9,28.9,4.7z"/>
<path class="st2" d="M64.1-27.3h-2.5c0.2,0.7,0.3,1.4,0.3,2.2c0,4.9-4,8.9-8.9,8.9c-4.9,0-8.9-4-8.9-8.9c0-0.8,0.1-1.5,0.3-2.2h-2.5
	v12.2c0,0.6,0.5,1.1,1.1,1.1H63c0.6,0,1.1-0.5,1.1-1.1V-27.3z M64.1-35c0-0.6-0.5-1.1-1.1-1.1h-3.3c-0.6,0-1.1,0.5-1.1,1.1v3.3
	c0,0.6,0.5,1.1,1.1,1.1H63c0.6,0,1.1-0.5,1.1-1.1V-35z M53-30.6c-3.1,0-5.5,2.5-5.5,5.5c0,3.1,2.5,5.5,5.5,5.5s5.5-2.5,5.5-5.5
	C58.5-28.1,56.1-30.6,53-30.6 M64.1-10.7H41.9c-1.8,0-3.3-1.5-3.3-3.3v-22.1c0-1.8,1.5-3.3,3.3-3.3h22.1c1.8,0,3.3,1.5,3.3,3.3V-14
	C67.4-12.2,65.9-10.7,64.1-10.7"/>
<path class="st3" d="M64.1,12.2h-2.5c0.2,0.7,0.3,1.4,0.3,2.2c0,4.9-4,8.9-8.9,8.9c-4.9,0-8.9-4-8.9-8.9c0-0.8,0.1-1.5,0.3-2.2h-2.5
	v12.2c0,0.6,0.5,1.1,1.1,1.1H63c0.6,0,1.1-0.5,1.1-1.1V12.2z M64.1,4.5c0-0.6-0.5-1.1-1.1-1.1h-3.3c-0.6,0-1.1,0.5-1.1,1.1v3.3
	c0,0.6,0.5,1.1,1.1,1.1H63c0.6,0,1.1-0.5,1.1-1.1V4.5z M53,8.9c-3.1,0-5.5,2.5-5.5,5.5c0,3.1,2.5,5.5,5.5,5.5s5.5-2.5,5.5-5.5
	C58.5,11.4,56.1,8.9,53,8.9 M64.1,28.8H41.9c-1.8,0-3.3-1.5-3.3-3.3V3.3c0-1.8,1.5-3.3,3.3-3.3h22.1c1.8,0,3.3,1.5,3.3,3.3v22.1
	C67.4,27.3,65.9,28.8,64.1,28.8"/>
<g id="ball_2_">
	<g>
		<path class="st0" d="M92.9-39.5c-7.9,0-14.4,6.5-14.4,14.4s6.5,14.4,14.4,14.4s14.4-6.5,14.4-14.4S100.8-39.5,92.9-39.5z
			 M102.4-32.8c1.7,2.1,2.7,4.8,2.8,7.7c-0.4-0.1-4.5-0.9-8.6-0.4c-0.1-0.2-0.2-0.4-0.3-0.6c-0.3-0.6-0.5-1.2-0.8-1.8
			C100.1-29.8,102.1-32.5,102.4-32.8z M92.9-37.4c3.1,0,6,1.2,8.1,3.1c-0.2,0.3-2.1,2.8-6.4,4.4c-2-3.7-4.2-6.7-4.6-7.2
			C90.9-37.2,91.9-37.4,92.9-37.4z M87.6-36.2c0.3,0.4,2.5,3.5,4.6,7.1c-5.8,1.5-10.8,1.5-11.4,1.5C81.6-31.4,84.2-34.6,87.6-36.2z
			 M80.6-25.1c0-0.1,0-0.3,0-0.4c0.5,0,6.5,0.1,12.6-1.7c0.4,0.7,0.7,1.4,1,2.1c-0.2,0-0.3,0.1-0.5,0.1c-6.3,2-9.7,7.6-10,8.1
			C81.8-19,80.6-21.9,80.6-25.1z M92.9-12.8c-2.8,0-5.5-1-7.5-2.6c0.2-0.5,2.7-5.3,9.6-7.7c0,0,0.1,0,0.1,0c1.7,4.5,2.4,8.2,2.6,9.3
			C96.2-13.1,94.6-12.8,92.9-12.8z M99.7-14.9c-0.1-0.7-0.8-4.3-2.4-8.8c3.9-0.6,7.2,0.4,7.7,0.5C104.4-19.7,102.5-16.7,99.7-14.9z"
			/>
	</g>
</g>
<g id="ball_3_">
	<g>
		<path class="st1" d="M92.9-1.9c-7.9,0-14.4,6.5-14.4,14.4s6.5,14.4,14.4,14.4s14.4-6.5,14.4-14.4S100.8-1.9,92.9-1.9z M102.4,4.7
			c1.7,2.1,2.7,4.8,2.8,7.7c-0.4-0.1-4.5-0.9-8.6-0.4c-0.1-0.2-0.2-0.4-0.3-0.6c-0.3-0.6-0.5-1.2-0.8-1.8
			C100.1,7.7,102.1,5.1,102.4,4.7z M92.9,0.2c3.1,0,6,1.2,8.1,3.1c-0.2,0.3-2.1,2.8-6.4,4.4C92.6,4,90.3,1,90,0.6
			C90.9,0.3,91.9,0.2,92.9,0.2z M87.6,1.4c0.3,0.4,2.5,3.5,4.6,7.1C86.4,10,81.4,10,80.8,10C81.6,6.2,84.2,3,87.6,1.4z M80.6,12.5
			c0-0.1,0-0.3,0-0.4c0.5,0,6.5,0.1,12.6-1.7c0.4,0.7,0.7,1.4,1,2.1c-0.2,0-0.3,0.1-0.5,0.1c-6.3,2-9.7,7.6-10,8.1
			C81.8,18.5,80.6,15.7,80.6,12.5z M92.9,24.8c-2.8,0-5.5-1-7.5-2.6c0.2-0.5,2.7-5.3,9.6-7.7c0,0,0.1,0,0.1,0
			c1.7,4.5,2.4,8.2,2.6,9.3C96.2,24.4,94.6,24.8,92.9,24.8z M99.7,22.7c-0.1-0.7-0.8-4.3-2.4-8.8c3.9-0.6,7.2,0.4,7.7,0.5
			C104.4,17.9,102.5,20.8,99.7,22.7z"/>
	</g>
</g>
<g>
	<g>
		<path class="st1" d="M-12.9,0h-24.6c-1.2,0-2.1,0.9-2.1,2.1v24.7c0,1.1,1,2.1,2.1,2.1h24.6c1.2,0,2.1-0.9,2.1-2.1V2.1
			C-10.7,0.9-11.7,0-12.9,0z M-31,24.6h-4.3V10.8h4.3V24.6z M-33.2,8.9c-1.4,0-2.5-1.1-2.5-2.5c0-1.4,1.1-2.5,2.5-2.5
			c1.4,0,2.5,1.1,2.5,2.5C-30.7,7.8-31.8,8.9-33.2,8.9z M-15,24.6h-4.3v-6.7c0-1.6,0-3.6-2.2-3.6c-2.2,0-2.6,1.7-2.6,3.5v6.8h-4.3
			V10.8h4.1v1.9h0.1c0.6-1.1,2-2.2,4-2.2c4.3,0,5.1,2.8,5.1,6.6V24.6z"/>
	</g>
</g>
</svg>
