<?xml version="1.0" encoding="utf-8"?>
<!-- Generator: Adobe Illustrator 19.1.0, SVG Export Plug-In . SVG Version: 6.00 Build 0)  -->
<!DOCTYPE svg PUBLIC "-//W3C//DTD SVG 1.1//EN" "http://www.w3.org/Graphics/SVG/1.1/DTD/svg11.dtd">
<svg version="1.1" id="Layer_2" xmlns="http://www.w3.org/2000/svg" xmlns:xlink="http://www.w3.org/1999/xlink" x="0px" y="0px"
	 viewBox="0 0 112.9 107.8" style="enable-background:new 0 0 112.9 107.8;" xml:space="preserve">
<style type="text/css">
	.st0{fill:#3A3A3A;}
	.st1{fill:none;stroke:#3A3A3A;stroke-linecap:round;stroke-linejoin:round;stroke-miterlimit:10;}
</style>
<g>
	<g>
		<path class="st0" d="M112.9,48.2c0,0-5.8,1.5-7.4-3.1c0.5-2.6,0.2-5.3-0.1-7C110.2,41.1,112.9,48.2,112.9,48.2z"/>
	</g>
	<g>
		<path class="st0" d="M108.6,92.1c0,0-32.7,6.7-28.7-21.8c0.8-5.8-0.7-11.6-2.3-15.9c6.7-0.2,21.5-1,25.3-4.2
			c4.6,4.1,7.9,7.4-0.1,12.7c-9.5,6.3,10.6,11.5,10.6,11.5S99,88.9,92.4,80C92.4,80,90.9,85.1,108.6,92.1z"/>
	</g>
	<g>
		<path class="st0" d="M76.5,53.8h-4v-23c0-18.5-3-27.4-20-27.4V0c22,0,24,14,24,30.8V53.8z"/>
	</g>
	<g>
		<g>
			<path class="st0" d="M6.5,48.6c-0.3,0-0.5-0.2-0.6-0.4c0,0-0.2-0.9-0.2-2.2c0-0.3,0.3-0.6,0.6-0.6c0.3,0,0.6,0.3,0.6,0.6
				c0,1.1,0.1,1.8,0.1,1.9c0.1,0.3-0.1,0.6-0.4,0.7C6.6,48.6,6.5,48.6,6.5,48.6z"/>
		</g>
		<g>
			<path class="st0" d="M57.7,48.3c-0.1,0-0.2,0-0.3-0.1c-1.1-0.6-2.3-1.3-3.7-2.1c-0.3-0.2-0.4-0.5-0.2-0.8
				c0.2-0.3,0.5-0.4,0.8-0.2c1.3,0.7,2.6,1.4,3.7,2.1c0.3,0.2,0.4,0.5,0.2,0.8C58.1,48.2,57.9,48.3,57.7,48.3z M50.3,44.3
				c-0.1,0-0.2,0-0.3-0.1c-1.3-0.7-2.6-1.3-3.8-1.9c-0.3-0.1-0.4-0.5-0.3-0.8c0.1-0.3,0.5-0.4,0.8-0.3c1.2,0.6,2.5,1.2,3.8,1.9
				c0.3,0.1,0.4,0.5,0.2,0.8C50.7,44.2,50.5,44.3,50.3,44.3z M7.4,42.5c-0.1,0-0.2,0-0.3-0.1c-0.3-0.2-0.4-0.5-0.2-0.8
				c0.7-1.3,1.7-2.4,2.9-3.3c0.3-0.2,0.6-0.1,0.8,0.1c0.2,0.3,0.1,0.6-0.1,0.8c-1.1,0.8-2,1.8-2.6,2.9C7.8,42.4,7.6,42.5,7.4,42.5z
				 M42.7,40.6c-0.1,0-0.2,0-0.2,0c-1.3-0.6-2.6-1.1-3.9-1.6c-0.3-0.1-0.5-0.4-0.3-0.7c0.1-0.3,0.4-0.5,0.7-0.3c1.3,0.5,2.6,1,4,1.6
				c0.3,0.1,0.4,0.5,0.3,0.8C43.1,40.5,42.9,40.6,42.7,40.6z M34.7,37.7c-0.1,0-0.1,0-0.2,0c-1.4-0.4-2.7-0.7-4-1
				c-0.3-0.1-0.5-0.4-0.5-0.7c0.1-0.3,0.4-0.5,0.7-0.5c1.3,0.3,2.7,0.6,4.1,1c0.3,0.1,0.5,0.4,0.4,0.7C35.2,37.6,35,37.7,34.7,37.7z
				 M14,37.5c-0.2,0-0.5-0.1-0.5-0.4c-0.1-0.3,0.1-0.6,0.4-0.7c1.3-0.4,2.7-0.8,4.2-1c0.3,0,0.6,0.2,0.7,0.5
				c0.1,0.3-0.2,0.6-0.5,0.7c-1.5,0.2-2.8,0.6-4,1C14.1,37.5,14,37.5,14,37.5z M26.5,36.1C26.4,36.1,26.4,36.1,26.5,36.1
				c-1.5-0.1-2.9-0.1-4.2-0.1c-0.3,0-0.6-0.2-0.6-0.6c0-0.3,0.2-0.6,0.6-0.6c1.3-0.1,2.8-0.1,4.3,0.1c0.3,0,0.6,0.3,0.5,0.6
				C27,35.9,26.8,36.1,26.5,36.1z"/>
		</g>
		<g>
			<path class="st0" d="M63.3,51.1c-0.4,0-1-0.2-2.1-0.8c-0.3-0.1-0.4-0.5-0.2-0.8c0.1-0.3,0.5-0.4,0.8-0.2c1.2,0.6,1.5,0.7,1.6,0.7
				c0.3,0,0.6,0.3,0.6,0.6C63.8,50.9,63.6,51.1,63.3,51.1z"/>
		</g>
	</g>
	<g>
		<path class="st0" d="M74.3,55.5l-0.6-0.4c-4,0-27.8,0.1-42.7,0.1c-1.8,0-3.4,0-5,0c-13.1,0-20.3,0.1-23.8-3.4
			C0.7,50.4,0,48.4,0,45.8c0-10.2,4.4-16.5,26.6-16.5c9.4,0,20.5,3.8,33,11.4c4.8,2.9,8.9,5.8,11.4,7.8c2.5,1.9,3.7,2.9,4.3,3.5l0,0
			l0,0c0.5,0.5,0.6,0.7,0.6,0.9l0.4,1.2L74.3,55.5z M26.6,32.8c-21.4,0-23.1,5.6-23.1,13c0,2.2,0.7,3.1,1.2,3.6
			c2.5,2.5,10,2.4,21.4,2.4c1.6,0,3.3,0,5,0c12,0,29.8-0.1,38.4-0.1C61.6,45.7,42.8,32.8,26.6,32.8z"/>
	</g>
	<g>
		<path class="st0" d="M82.4,55.2c-1.9,0-4,0-6.3,0c-2.6,0-5.7,0-8.7,0v-3.5c3,0,6,0,8.7,0c16.6,0,24.3,0.1,26.2-1.9
			c0.8-0.9,0.9-2.6,0.9-5.9c0-0.6,0-1.2,0-1.8c0-13.7-3-23.4-9.1-29.5c-9.5-9.4-25.7-9.3-41.4-9.1c-1.9,0-3.7,0-5.6,0
			c-10.9,0-18.5,3.7-22.4,11c-3.2,5.9-3.2,12.7-3.2,15.6v-0.3h-3v0.3c0-3.2-0.2-10.6,3.4-17.3c4.6-8.5,13-12.8,25.3-12.8
			c1.8,0,3.6,0,5.5,0C69.1-0.1,86-0.2,96.5,10.2c6.8,6.8,10.2,17.2,10.2,31.9c0,0.6,0,1.2,0,1.8c0,3.7,0.1,6.5-1.9,8.4
			C102.2,54.9,97.2,55.2,82.4,55.2z"/>
	</g>
	<g>
		<path class="st0" d="M103.4,36.6c0,0-6.5-0.7-6.5,3.7s4.6,3.6,5.9,3.6C104.1,43.9,103.4,36.6,103.4,36.6z"/>
	</g>
	<g>
		<g>
			<path class="st0" d="M53.1,35.7c3.4-2.1,5.4-5.7,5.4-9.7c0-6.3-5.1-11.4-11.4-11.4S35.7,19.7,35.7,26c0,1.6,0.4,3.2,1,4.8
				l0.2,0.4l0.4,0.1c0.7,0.2,1.5,0.4,2.2,0.6c-0.8-0.5-1.2-1.3-1.3-2.2c0,0,0,0-0.1,0c-0.5-1.2-0.7-2.4-0.7-3.6
				c0-5.3,4.3-9.6,9.6-9.6s9.6,4.3,9.6,9.6c0,3.2-1.5,6.1-4.1,7.9c0,0-1.7,1.2-2.8,1.2l0.5,0.8C50.3,35.8,51.3,36.7,53.1,35.7z"/>
		</g>
	</g>
	<g>
		<path class="st0" d="M15.9,52.7c-0.6,6.1-7,9.2-1.9,12.9c3.6,2.6-3.4,7-3.4,7s5.6,6.5,7.7,1.2c0,0,0.7,2.6-5.4,7.9
			c0,0,12,0.8,9.6-14c-0.9-5.8,1.9-14.2,1.9-14.2L15.9,52.7z"/>
	</g>
	<g>
		<path class="st0" d="M40.3,55.1c7.5,0.6,12,6,16.2,3.2c3-2,8.8,2.3,8.8,2.3s7.8-3,1.1-4.4c0,0,3.2-0.3,9.9,3.5
			c0,0,0.5-6.9-17.8-6.2c-7.2,0.3-17.6-1.7-17.6-1.7L40.3,55.1z"/>
	</g>
	<g>
		<g>
			<path class="st0" d="M79.2,93.4c-0.1,0-0.1,0-0.2-0.1l-3-2.9c-0.1-0.1-0.1-0.3,0-0.4c0.1-0.1,0.3-0.1,0.4,0l3,2.9
				c0.1,0.1,0.1,0.3,0,0.4C79.4,93.4,79.3,93.4,79.2,93.4z"/>
		</g>
		<g>
			<path class="st0" d="M74.1,96.5c-0.1,0-0.2,0-0.2-0.1l-2.5-3.6c-0.1-0.1-0.1-0.3,0.1-0.4c0.1-0.1,0.3-0.1,0.4,0.1l2.5,3.6
				c0.1,0.1,0.1,0.3-0.1,0.4C74.2,96.5,74.1,96.5,74.1,96.5z"/>
		</g>
		<g>
			<path class="st0" d="M74.2,100.8c-0.1,0-0.2-0.1-0.3-0.2l-2.1-4c-0.1-0.1,0-0.3,0.1-0.4c0.1-0.1,0.3,0,0.4,0.1l2.1,4
				c0.1,0.1,0,0.3-0.1,0.4C74.3,100.8,74.2,100.8,74.2,100.8z"/>
		</g>
		<g>
			<path class="st0" d="M68.2,102.2c-0.1,0-0.2-0.1-0.3-0.2l-2.1-4c-0.1-0.1,0-0.3,0.1-0.4c0.1-0.1,0.3,0,0.4,0.1l2.1,4
				c0.1,0.1,0,0.3-0.1,0.4C68.3,102.2,68.3,102.2,68.2,102.2z"/>
		</g>
		<g>
			<path class="st0" d="M80.2,90.4c-0.1,0-0.1,0-0.2-0.1l-2.8-2.7c-0.1-0.1-0.1-0.3,0-0.4c0.1-0.1,0.3-0.1,0.4,0l2.8,2.7
				c0.1,0.1,0.1,0.3,0,0.4C80.3,90.4,80.2,90.4,80.2,90.4z"/>
		</g>
		<g>
			<path class="st1" d="M83.5,95.1"/>
		</g>
		<g>
			<path class="st1" d="M80.5,92.2"/>
		</g>
		<g>
			<path class="st0" d="M59.1,106.3c-0.1,0-0.2-0.1-0.3-0.2l-1.2-4.3c0-0.2,0-0.3,0.2-0.4c0.2,0,0.3,0,0.4,0.2l1.2,4.3
				C59.4,106.1,59.3,106.2,59.1,106.3C59.1,106.3,59.1,106.3,59.1,106.3z"/>
		</g>
		<g>
			<path class="st0" d="M63.6,101.4c-0.1,0-0.2-0.1-0.3-0.1l-2.1-3.7c-0.1-0.1,0-0.3,0.1-0.4c0.1-0.1,0.3,0,0.4,0.1l2.1,3.7
				c0.1,0.1,0,0.3-0.1,0.4C63.7,101.4,63.7,101.4,63.6,101.4z"/>
		</g>
		<g>
			<path class="st0" d="M67.1,104.3c-0.1,0-0.2-0.1-0.3-0.1l-2.1-3.7c-0.1-0.1,0-0.3,0.1-0.4c0.1-0.1,0.3,0,0.4,0.1l2.1,3.7
				c0.1,0.1,0,0.3-0.1,0.4C67.2,104.3,67.2,104.3,67.1,104.3z"/>
		</g>
		<g>
			<path class="st0" d="M62.7,104.9c-0.1,0-0.2-0.1-0.3-0.2l-1.5-3.9c-0.1-0.1,0-0.3,0.2-0.4c0.2-0.1,0.3,0,0.4,0.2l1.5,3.9
				c0.1,0.1,0,0.3-0.2,0.4C62.8,104.9,62.8,104.9,62.7,104.9z"/>
		</g>
	</g>
	<g>
		<g>
			<path class="st0" d="M73.5,85.1c-0.1,0-0.1,0-0.2,0l-3.5-2.2c-0.1-0.1-0.2-0.3-0.1-0.4c0.1-0.1,0.3-0.2,0.4-0.1l3.5,2.2
				c0.1,0.1,0.2,0.3,0.1,0.4C73.7,85,73.6,85.1,73.5,85.1z"/>
		</g>
		<g>
			<path class="st0" d="M80.5,81.6c-0.1,0-0.1,0-0.2,0l-3.5-2.2c-0.1-0.1-0.2-0.3-0.1-0.4c0.1-0.1,0.3-0.2,0.4-0.1l3.5,2.2
				c0.1,0.1,0.2,0.3,0.1,0.4C80.7,81.6,80.6,81.6,80.5,81.6z"/>
		</g>
		<g>
			<path class="st0" d="M71.9,90.1c-0.1,0-0.1,0-0.2-0.1l-3.2-3c-0.1-0.1-0.1-0.3,0-0.4c0.1-0.1,0.3-0.1,0.4,0l3.2,3
				c0.1,0.1,0.1,0.3,0,0.4C72.1,90.1,72,90.1,71.9,90.1z"/>
		</g>
		<g>
			<path class="st0" d="M75.2,92.9c-0.1,0-0.1,0-0.2-0.1l-1.7-1.6c-0.1-0.1-0.1-0.3,0-0.4c0.1-0.1,0.3-0.1,0.4,0l1.7,1.6
				c0.1,0.1,0.1,0.3,0,0.4C75.4,92.8,75.3,92.9,75.2,92.9z"/>
		</g>
		<g>
			<path class="st0" d="M70.2,93.1c-0.1,0-0.2,0-0.2-0.1l-2.9-3.5c-0.1-0.1-0.1-0.3,0-0.4c0.1-0.1,0.3-0.1,0.4,0l2.9,3.5
				c0.1,0.1,0.1,0.3,0,0.4C70.3,93.1,70.3,93.1,70.2,93.1z"/>
		</g>
		<g>
			<path class="st0" d="M66.2,96.1c-0.1,0-0.2,0-0.2-0.1l-2.9-3.5c-0.1-0.1-0.1-0.3,0-0.4c0.1-0.1,0.3-0.1,0.4,0l2.9,3.5
				c0.1,0.1,0.1,0.3,0,0.4C66.3,96.1,66.3,96.1,66.2,96.1z"/>
		</g>
		<g>
			<path class="st0" d="M77.1,82.6c-0.1,0-0.1,0-0.2,0l-3.3-2.1c-0.1-0.1-0.2-0.3-0.1-0.4c0.1-0.1,0.3-0.2,0.4-0.1l3.3,2.1
				c0.1,0.1,0.2,0.3,0.1,0.4C77.3,82.5,77.2,82.6,77.1,82.6z"/>
		</g>
		<g>
			<path class="st0" d="M80.6,78c-0.1,0-0.1,0-0.2,0l-3.3-2.1c-0.1-0.1-0.2-0.3-0.1-0.4c0.1-0.1,0.3-0.2,0.4-0.1l3.3,2.1
				c0.1,0.1,0.2,0.3,0.1,0.4C80.8,77.9,80.7,78,80.6,78z"/>
		</g>
		<g>
			<path class="st0" d="M75.7,89.4c-0.1,0-0.1,0-0.2,0L72,87.1c-0.1-0.1-0.2-0.3-0.1-0.4c0.1-0.1,0.3-0.2,0.4-0.1l3.5,2.2
				c0.1,0.1,0.2,0.3,0.1,0.4C75.9,89.3,75.8,89.4,75.7,89.4z"/>
		</g>
		<g>
			<path class="st0" d="M80.4,88c-0.1,0-0.1,0-0.2-0.1l-3.1-3.1c-0.1-0.1-0.1-0.3,0-0.4c0.1-0.1,0.3-0.1,0.4,0l3.1,3.1
				c0.1,0.1,0.1,0.3,0,0.4C80.6,88,80.5,88,80.4,88z"/>
		</g>
		<g>
			<path class="st0" d="M69.9,97c-0.1,0-0.2,0-0.2-0.1l-2.9-3.5c-0.1-0.1-0.1-0.3,0-0.4c0.1-0.1,0.3-0.1,0.4,0l2.9,3.5
				c0.1,0.1,0.1,0.3,0,0.4C70,97,69.9,97,69.9,97z"/>
		</g>
		<g>
			<path class="st0" d="M64.3,98.8c-0.1,0-0.2-0.1-0.2-0.1l-2.1-3.6c-0.1-0.1,0-0.3,0.1-0.4c0.1-0.1,0.3,0,0.4,0.1l2.1,3.6
				c0.1,0.1,0,0.3-0.1,0.4C64.4,98.8,64.4,98.8,64.3,98.8z"/>
		</g>
		<g>
			<path class="st0" d="M60,102.8c-0.1,0-0.2-0.1-0.3-0.2l-1.5-3.9c-0.1-0.1,0-0.3,0.2-0.4c0.1-0.1,0.3,0,0.4,0.2l1.5,3.9
				c0.1,0.1,0,0.3-0.2,0.4C60,102.7,60,102.8,60,102.8z"/>
		</g>
	</g>
	<g>
		<g>
			<path class="st0" d="M57.3,101.7c-0.1,0-0.3-0.1-0.3-0.2l-0.9-4.1c0-0.2,0.1-0.3,0.2-0.3c0.2,0,0.3,0.1,0.3,0.2l0.9,4.1
				C57.6,101.5,57.5,101.6,57.3,101.7C57.4,101.7,57.3,101.7,57.3,101.7z"/>
		</g>
		<g>
			<path class="st0" d="M79.2,96.4c-0.1,0-0.2,0-0.2-0.1l-2.4-3c-0.1-0.1-0.1-0.3,0-0.4c0.1-0.1,0.3-0.1,0.4,0l2.4,3
				c0.1,0.1,0.1,0.3,0,0.4C79.4,96.4,79.3,96.4,79.2,96.4z"/>
		</g>
		<g>
			<path class="st0" d="M55,105.5c-0.1,0-0.2-0.1-0.3-0.2l-1-4.1c0-0.2,0.1-0.3,0.2-0.4c0.2,0,0.3,0.1,0.4,0.2l1,4.1
				C55.3,105.3,55.2,105.4,55,105.5C55,105.5,55,105.5,55,105.5z"/>
		</g>
		<g>
			<path class="st0" d="M52.7,107.8c-0.1,0-0.3-0.2-0.3-0.3l-0.3-4.2c0-0.2,0.1-0.3,0.3-0.3c0.1,0,0.3,0.1,0.3,0.3l0.3,4.3
				C53,107.6,52.9,107.8,52.7,107.8C52.7,107.8,52.7,107.8,52.7,107.8z"/>
		</g>
		<g>
			<path class="st0" d="M56.7,107.8c-0.1,0-0.3-0.2-0.3-0.4l-0.3-4.2c0-0.2,0.1-0.3,0.3-0.3c0.2,0,0.3,0.1,0.3,0.3l0.3,4.3
				C57,107.6,56.9,107.8,56.7,107.8C56.7,107.8,56.7,107.8,56.7,107.8z"/>
		</g>
	</g>
</g>
</svg>
