<?xml version="1.0" encoding="utf-8"?>
<!-- Generator: Adobe Illustrator 19.1.0, SVG Export Plug-In . SVG Version: 6.00 Build 0)  -->
<!DOCTYPE svg PUBLIC "-//W3C//DTD SVG 1.1//EN" "http://www.w3.org/Graphics/SVG/1.1/DTD/svg11.dtd">
<svg version="1.1" id="Layer_2" xmlns="http://www.w3.org/2000/svg" xmlns:xlink="http://www.w3.org/1999/xlink" x="0px" y="0px"
	 viewBox="332 236 140 140" style="enable-background:new 332 236 140 140;" xml:space="preserve">
<style type="text/css">
	.st0{fill:#989898;}
	.st1{fill:#3A3A3A;}
	.st2{fill:none;stroke:#3A3A3A;stroke-linecap:round;stroke-linejoin:round;stroke-miterlimit:10;}
</style>
<circle class="st0" cx="402" cy="306" r="70"/>
<g>
	<g>
		<path class="st1" d="M458.4,301.4c0,0-5.8,1.5-7.4-3.1c0.5-2.6,0.2-5.3-0.1-7C455.8,294.3,458.4,301.4,458.4,301.4z"/>
	</g>
	<g>
		<path class="st1" d="M454.1,345.3c0,0-32.7,6.7-28.7-21.8c0.8-5.8-0.7-11.6-2.3-15.9c6.7-0.2,21.5-1,25.3-4.2
			c4.6,4.1,7.9,7.4-0.1,12.7c-9.5,6.3,10.6,11.5,10.6,11.5s-14.3,14.4-20.9,5.5C437.9,333.2,436.5,338.3,454.1,345.3z"/>
	</g>
	<g>
		<path class="st1" d="M422,307h-4v-23c0-18.5-3-27.4-20-27.4v-3.5c22,0,24,14,24,30.8V307z"/>
	</g>
	<g>
		<g>
			<path class="st1" d="M352,301.7c-0.3,0-0.5-0.2-0.6-0.4c0,0-0.2-0.9-0.2-2.2c0-0.3,0.3-0.6,0.6-0.6c0.3,0,0.6,0.3,0.6,0.6
				c0,1.1,0.1,1.8,0.1,1.9c0.1,0.3-0.1,0.6-0.4,0.7C352.1,301.7,352.1,301.7,352,301.7z"/>
		</g>
		<g>
			<path class="st1" d="M403.2,301.5c-0.1,0-0.2,0-0.3-0.1c-1.1-0.6-2.3-1.3-3.7-2.1c-0.3-0.2-0.4-0.5-0.2-0.8
				c0.2-0.3,0.5-0.4,0.8-0.2c1.3,0.7,2.6,1.4,3.7,2.1c0.3,0.2,0.4,0.5,0.2,0.8C403.6,301.4,403.4,301.5,403.2,301.5z M395.8,297.4
				c-0.1,0-0.2,0-0.3-0.1c-1.3-0.7-2.6-1.3-3.8-1.9c-0.3-0.1-0.4-0.5-0.3-0.8s0.5-0.4,0.8-0.3c1.2,0.6,2.5,1.2,3.8,1.9
				c0.3,0.1,0.4,0.5,0.2,0.8C396.2,297.3,396,297.4,395.8,297.4z M353,295.7c-0.1,0-0.2,0-0.3-0.1c-0.3-0.2-0.4-0.5-0.2-0.8
				c0.7-1.3,1.7-2.4,2.9-3.3c0.3-0.2,0.6-0.1,0.8,0.1c0.2,0.3,0.1,0.6-0.1,0.8c-1.1,0.8-2,1.8-2.6,2.9
				C353.4,295.6,353.2,295.7,353,295.7z M388.2,293.8c-0.1,0-0.2,0-0.2,0c-1.3-0.6-2.6-1.1-3.9-1.6c-0.3-0.1-0.5-0.4-0.3-0.7
				c0.1-0.3,0.4-0.5,0.7-0.3c1.3,0.5,2.6,1,4,1.6c0.3,0.1,0.4,0.5,0.3,0.8C388.7,293.7,388.4,293.8,388.2,293.8z M380.3,290.9
				c-0.1,0-0.1,0-0.2,0c-1.4-0.4-2.7-0.7-4-1c-0.3-0.1-0.5-0.4-0.5-0.7c0.1-0.3,0.4-0.5,0.7-0.5c1.3,0.3,2.7,0.6,4.1,1
				c0.3,0.1,0.5,0.4,0.4,0.7C380.8,290.8,380.5,290.9,380.3,290.9z M359.5,290.6c-0.2,0-0.5-0.1-0.5-0.4c-0.1-0.3,0.1-0.6,0.4-0.7
				c1.3-0.4,2.7-0.8,4.2-1c0.3,0,0.6,0.2,0.7,0.5s-0.2,0.6-0.5,0.7c-1.5,0.2-2.8,0.6-4,1C359.6,290.6,359.6,290.6,359.5,290.6z
				 M372,289.3L372,289.3c-1.5-0.1-2.9-0.1-4.2-0.1c-0.3,0-0.6-0.2-0.6-0.6c0-0.3,0.2-0.6,0.6-0.6c1.3-0.1,2.8-0.1,4.3,0.1
				c0.3,0,0.6,0.3,0.5,0.6C372.6,289.1,372.3,289.3,372,289.3z"/>
		</g>
		<g>
			<path class="st1" d="M408.8,304.3c-0.4,0-1-0.2-2.1-0.8c-0.3-0.1-0.4-0.5-0.2-0.8c0.1-0.3,0.5-0.4,0.8-0.2
				c1.2,0.6,1.5,0.7,1.6,0.7c0.3,0,0.6,0.3,0.6,0.6S409.1,304.3,408.8,304.3z"/>
		</g>
	</g>
	<g>
		<path class="st1" d="M419.9,308.7l-0.6-0.4c-4,0-27.8,0.1-42.7,0.1c-1.8,0-3.4,0-5,0c-13.1,0-20.3,0.1-23.8-3.4
			c-1.5-1.5-2.2-3.4-2.2-6.1c0-10.2,4.4-16.5,26.6-16.5c9.4,0,20.5,3.8,33,11.4c4.8,2.9,8.9,5.8,11.4,7.8c2.5,1.9,3.7,2.9,4.3,3.5
			l0,0l0,0c0.5,0.5,0.6,0.7,0.6,0.9l0.4,1.2L419.9,308.7z M372.1,286c-21.4,0-23.1,5.6-23.1,13c0,2.2,0.7,3.1,1.2,3.6
			c2.5,2.5,10,2.4,21.4,2.4c1.6,0,3.3,0,5,0c12,0,29.8-0.1,38.4-0.1C407.1,298.9,388.3,286,372.1,286z"/>
	</g>
	<g>
		<path class="st1" d="M428,308.3c-1.9,0-4,0-6.3,0c-2.6,0-5.7,0-8.7,0v-3.5c3,0,6,0,8.7,0c16.6,0,24.3,0.1,26.2-1.9
			c0.8-0.9,0.9-2.6,0.9-5.9c0-0.6,0-1.2,0-1.8c0-13.7-3-23.4-9.1-29.5c-9.5-9.4-25.7-9.3-41.4-9.1c-1.9,0-3.7,0-5.6,0
			c-10.9,0-18.5,3.7-22.4,11c-3.2,5.9-3.2,12.7-3.2,15.6V283h-3v0.3c0-3.2-0.2-10.6,3.4-17.3c4.6-8.5,13-12.8,25.3-12.8
			c1.8,0,3.6,0,5.5,0c16.4-0.1,33.3-0.3,43.8,10.1c6.8,6.8,10.2,17.2,10.2,31.9c0,0.6,0,1.2,0,1.8c0,3.7,0.1,6.5-1.9,8.4
			C447.7,308,442.8,308.3,428,308.3z"/>
	</g>
	<g>
		<path class="st1" d="M449,289.8c0,0-6.5-0.7-6.5,3.7c0,4.5,4.6,3.6,5.9,3.6C449.7,297.1,449,289.8,449,289.8z"/>
	</g>
	<g>
		<g>
			<path class="st1" d="M398.6,288.8c3.4-2.1,5.4-5.7,5.4-9.7c0-6.3-5.1-11.4-11.4-11.4s-11.4,5.1-11.4,11.4c0,1.6,0.4,3.2,1,4.8
				l0.2,0.4l0.4,0.1c0.7,0.2,1.5,0.4,2.2,0.6c-0.8-0.5-1.2-1.3-1.3-2.2c0,0,0,0-0.1,0c-0.5-1.2-0.7-2.4-0.7-3.6
				c0-5.3,4.3-9.6,9.6-9.6s9.6,4.3,9.6,9.6c0,3.2-1.5,6.1-4.1,7.9c0,0-1.7,1.2-2.8,1.2l0.5,0.8C395.8,289,396.8,289.8,398.6,288.8z"
				/>
		</g>
	</g>
	<g>
		<path class="st1" d="M361.4,305.9c-0.6,6.1-7,9.2-1.9,12.9c3.6,2.6-3.4,7-3.4,7s5.6,6.5,7.7,1.2c0,0,0.7,2.6-5.4,7.9
			c0,0,12,0.8,9.6-14c-0.9-5.8,1.9-14.2,1.9-14.2L361.4,305.9z"/>
	</g>
	<g>
		<path class="st1" d="M385.9,308.3c7.5,0.6,12,6,16.2,3.2c3-2,8.8,2.3,8.8,2.3s7.8-3,1.1-4.4c0,0,3.2-0.3,9.9,3.5
			c0,0,0.5-6.9-17.8-6.2c-7.2,0.3-17.6-1.7-17.6-1.7L385.9,308.3z"/>
	</g>
	<g>
		<g>
			<path class="st1" d="M424.8,346.6c-0.1,0-0.1,0-0.2-0.1l-3-2.9c-0.1-0.1-0.1-0.3,0-0.4s0.3-0.1,0.4,0l3,2.9
				c0.1,0.1,0.1,0.3,0,0.4S424.8,346.6,424.8,346.6z"/>
		</g>
		<g>
			<path class="st1" d="M419.6,349.7c-0.1,0-0.2,0-0.2-0.1l-2.5-3.6c-0.1-0.1-0.1-0.3,0.1-0.4c0.1-0.1,0.3-0.1,0.4,0.1l2.5,3.6
				c0.1,0.1,0.1,0.3-0.1,0.4C419.7,349.7,419.7,349.7,419.6,349.7z"/>
		</g>
		<g>
			<path class="st1" d="M419.7,354c-0.1,0-0.2-0.1-0.3-0.2l-2.1-4c-0.1-0.1,0-0.3,0.1-0.4s0.3,0,0.4,0.1l2.1,4
				c0.1,0.1,0,0.3-0.1,0.4C419.8,354,419.8,354,419.7,354z"/>
		</g>
		<g>
			<path class="st1" d="M413.8,355.4c-0.1,0-0.2-0.1-0.3-0.2l-2.1-4c-0.1-0.1,0-0.3,0.1-0.4s0.3,0,0.4,0.1l2.1,4
				c0.1,0.1,0,0.3-0.1,0.4S413.8,355.4,413.8,355.4z"/>
		</g>
		<g>
			<path class="st1" d="M425.7,343.6c-0.1,0-0.1,0-0.2-0.1l-2.8-2.7c-0.1-0.1-0.1-0.3,0-0.4s0.3-0.1,0.4,0l2.8,2.7
				c0.1,0.1,0.1,0.3,0,0.4C425.9,343.6,425.8,343.6,425.7,343.6z"/>
		</g>
		<g>
			<path class="st2" d="M429.1,348.3"/>
		</g>
		<g>
			<path class="st2" d="M426.1,345.3"/>
		</g>
		<g>
			<path class="st1" d="M404.6,359.5c-0.1,0-0.2-0.1-0.3-0.2l-1.2-4.3c0-0.2,0-0.3,0.2-0.4c0.2,0,0.3,0,0.4,0.2l1.2,4.3
				C405,359.3,404.9,359.4,404.6,359.5C404.7,359.5,404.7,359.5,404.6,359.5z"/>
		</g>
		<g>
			<path class="st1" d="M409.2,354.6c-0.1,0-0.2-0.1-0.3-0.1l-2.1-3.7c-0.1-0.1,0-0.3,0.1-0.4s0.3,0,0.4,0.1l2.1,3.7
				c0.1,0.1,0,0.3-0.1,0.4C409.3,354.6,409.2,354.6,409.2,354.6z"/>
		</g>
		<g>
			<path class="st1" d="M412.7,357.5c-0.1,0-0.2-0.1-0.3-0.1l-2.1-3.7c-0.1-0.1,0-0.3,0.1-0.4s0.3,0,0.4,0.1l2.1,3.7
				c0.1,0.1,0,0.3-0.1,0.4C412.8,357.5,412.7,357.5,412.7,357.5z"/>
		</g>
		<g>
			<path class="st1" d="M408.3,358.1c-0.1,0-0.2-0.1-0.3-0.2l-1.5-3.9c-0.1-0.1,0-0.3,0.2-0.4s0.3,0,0.4,0.2l1.5,3.9
				c0.1,0.1,0,0.3-0.2,0.4C408.3,358.1,408.3,358.1,408.3,358.1z"/>
		</g>
	</g>
	<g>
		<g>
			<path class="st1" d="M419.1,338.2c-0.1,0-0.1,0-0.2,0l-3.5-2.2c-0.1-0.1-0.2-0.3-0.1-0.4s0.3-0.2,0.4-0.1l3.5,2.2
				c0.1,0.1,0.2,0.3,0.1,0.4C419.3,338.2,419.2,338.2,419.1,338.2z"/>
		</g>
		<g>
			<path class="st1" d="M426,334.8c-0.1,0-0.1,0-0.2,0l-3.5-2.2c-0.1-0.1-0.2-0.3-0.1-0.4s0.3-0.2,0.4-0.1l3.5,2.2
				c0.1,0.1,0.2,0.3,0.1,0.4C426.2,334.7,426.1,334.8,426,334.8z"/>
		</g>
		<g>
			<path class="st1" d="M417.5,343.3c-0.1,0-0.1,0-0.2-0.1l-3.2-3c-0.1-0.1-0.1-0.3,0-0.4s0.3-0.1,0.4,0l3.2,3
				c0.1,0.1,0.1,0.3,0,0.4C417.6,343.2,417.6,343.3,417.5,343.3z"/>
		</g>
		<g>
			<path class="st1" d="M420.8,346.1c-0.1,0-0.1,0-0.2-0.1l-1.7-1.6c-0.1-0.1-0.1-0.3,0-0.4s0.3-0.1,0.4,0l1.7,1.6
				c0.1,0.1,0.1,0.3,0,0.4C420.9,346,420.9,346.1,420.8,346.1z"/>
		</g>
		<g>
			<path class="st1" d="M415.8,346.3c-0.1,0-0.2,0-0.2-0.1l-2.9-3.5c-0.1-0.1-0.1-0.3,0-0.4s0.3-0.1,0.4,0l2.9,3.5
				c0.1,0.1,0.1,0.3,0,0.4C415.9,346.3,415.8,346.3,415.8,346.3z"/>
		</g>
		<g>
			<path class="st1" d="M411.7,349.3c-0.1,0-0.2,0-0.2-0.1l-2.9-3.5c-0.1-0.1-0.1-0.3,0-0.4s0.3-0.1,0.4,0l2.9,3.5
				c0.1,0.1,0.1,0.3,0,0.4C411.9,349.2,411.8,349.3,411.7,349.3z"/>
		</g>
		<g>
			<path class="st1" d="M422.7,335.8c-0.1,0-0.1,0-0.2,0l-3.3-2.1c-0.1-0.1-0.2-0.3-0.1-0.4s0.3-0.2,0.4-0.1l3.3,2.1
				c0.1,0.1,0.2,0.3,0.1,0.4C422.9,335.7,422.8,335.8,422.7,335.8z"/>
		</g>
		<g>
			<path class="st1" d="M426.2,331.1c-0.1,0-0.1,0-0.2,0l-3.3-2.1c-0.1-0.1-0.2-0.3-0.1-0.4s0.3-0.2,0.4-0.1l3.3,2.1
				c0.1,0.1,0.2,0.3,0.1,0.4C426.3,331.1,426.3,331.1,426.2,331.1z"/>
		</g>
		<g>
			<path class="st1" d="M421.3,342.5c-0.1,0-0.1,0-0.2,0l-3.5-2.2c-0.1-0.1-0.2-0.3-0.1-0.4s0.3-0.2,0.4-0.1l3.5,2.2
				c0.1,0.1,0.2,0.3,0.1,0.4C421.5,342.5,421.4,342.5,421.3,342.5z"/>
		</g>
		<g>
			<path class="st1" d="M426,341.2c-0.1,0-0.1,0-0.2-0.1l-3.1-3.1c-0.1-0.1-0.1-0.3,0-0.4s0.3-0.1,0.4,0l3.1,3.1
				c0.1,0.1,0.1,0.3,0,0.4C426.1,341.1,426.1,341.2,426,341.2z"/>
		</g>
		<g>
			<path class="st1" d="M415.4,350.2c-0.1,0-0.2,0-0.2-0.1l-2.9-3.5c-0.1-0.1-0.1-0.3,0-0.4s0.3-0.1,0.4,0l2.9,3.5
				c0.1,0.1,0.1,0.3,0,0.4C415.5,350.2,415.5,350.2,415.4,350.2z"/>
		</g>
		<g>
			<path class="st1" d="M409.9,352c-0.1,0-0.2-0.1-0.2-0.1l-2.1-3.6c-0.1-0.1,0-0.3,0.1-0.4s0.3,0,0.4,0.1l2.1,3.6
				c0.1,0.1,0,0.3-0.1,0.4C410,352,409.9,352,409.9,352z"/>
		</g>
		<g>
			<path class="st1" d="M405.5,355.9c-0.1,0-0.2-0.1-0.3-0.2l-1.5-3.9c-0.1-0.1,0-0.3,0.2-0.4c0.1-0.1,0.3,0,0.4,0.2l1.5,3.9
				c0.1,0.1,0,0.3-0.2,0.4H405.5z"/>
		</g>
	</g>
	<g>
		<g>
			<path class="st1" d="M402.9,354.8c-0.1,0-0.3-0.1-0.3-0.2l-0.9-4.1c0-0.2,0.1-0.3,0.2-0.3c0.2,0,0.3,0.1,0.3,0.2l0.9,4.1
				C403.2,354.7,403.1,354.8,402.9,354.8L402.9,354.8z"/>
		</g>
		<g>
			<path class="st1" d="M424.8,349.6c-0.1,0-0.2,0-0.2-0.1l-2.4-3c-0.1-0.1-0.1-0.3,0-0.4s0.3-0.1,0.4,0l2.4,3
				c0.1,0.1,0.1,0.3,0,0.4S424.8,349.6,424.8,349.6z"/>
		</g>
		<g>
			<path class="st1" d="M400.5,358.6c-0.1,0-0.2-0.1-0.3-0.2l-1-4.1c0-0.2,0.1-0.3,0.2-0.4c0.2,0,0.3,0.1,0.4,0.2l1,4.1
				C400.9,358.4,400.8,358.6,400.5,358.6C400.6,358.6,400.6,358.6,400.5,358.6z"/>
		</g>
		<g>
			<path class="st1" d="M398.3,361c-0.1,0-0.3-0.2-0.3-0.3l-0.3-4.2c0-0.2,0.1-0.3,0.3-0.3c0.1,0,0.3,0.1,0.3,0.3l0.3,4.3
				C398.6,360.8,398.4,361,398.3,361L398.3,361z"/>
		</g>
		<g>
			<path class="st1" d="M402.3,361c-0.1,0-0.3-0.2-0.3-0.4l-0.3-4.2c0-0.2,0.1-0.3,0.3-0.3c0.2,0,0.3,0.1,0.3,0.3l0.3,4.3
				C402.6,360.7,402.4,361,402.3,361L402.3,361z"/>
		</g>
	</g>
</g>
</svg>
